<?xml version="1.0"?>
<svg xmlns="http://www.w3.org/2000/svg" width="148" height="148" viewBox="0 0 148 148" fill="none">
<rect width="148" height="148" fill="#463F39"/>
<path d="M139.778 0H8.22222C6.04155 0 3.9502 0.866267 2.40823 2.40823C0.866267 3.9502 0 6.04155 0 8.22222L0 139.778C0 141.958 0.866267 144.05 2.40823 145.592C3.9502 147.134 6.04155 148 8.22222 148H79.0567V90.7733H59.8372V68.3678H79.0567V51.9233C79.0567 32.8067 90.7322 22.385 107.834 22.385C113.588 22.3682 119.338 22.6632 125.06 23.2689V43.1667H113.261C103.991 43.1667 102.182 47.5861 102.182 54.0611V68.3267H124.361L121.483 90.7322H102.182V148H139.778C141.958 148 144.05 147.134 145.592 145.592C147.134 144.05 148 141.958 148 139.778V8.22222C148 6.04155 147.134 3.9502 145.592 2.40823C144.05 0.866267 141.958 0 139.778 0Z" fill="#463F39"/>
<path d="M42.3444 125.657V68.4301H61.6461L64.5239 46.0246H42.3444V31.759C42.3444 25.284 44.1533 20.8646 53.4239 20.8646H65.1817V0.884569C59.46 0.278928 53.7097 -0.0161346 47.9561 0.000679931C30.895 0.000679931 19.1783 10.4223 19.1783 29.539V45.9835H0V68.389H19.2194V125.657H42.3444Z" transform="translate(59.8369 22.343)" fill="white"/>
</svg>
