<?xml version="1.0"?>
<svg xmlns="http://www.w3.org/2000/svg" width="25" height="24" viewBox="0 0 25 24" fill="none">
<path fill-rule="evenodd" clip-rule="evenodd" d="M9.14583 0.0707758C9.76616 0.0786281 10.618 0.0894108 12 0.0894108H17.11C18.37 0.129411 19.24 0.239704 20.01 0.539704C20.8 0.839704 21.46 1.2797 22.16 1.9397C22.86 2.6097 23.26 3.2897 23.56 4.0897C23.86 4.8297 24.06 5.6897 24.12 6.9897C24.19 8.2697 24.19 8.6697 24.19 11.9297C24.19 15.1897 24.18 15.5897 24.13 16.8897C24.03 18.1597 23.83 19.0297 23.53 19.7897C23.23 20.5797 22.82 21.2497 22.15 21.9297C21.48 22.5897 20.81 23.0297 20.01 23.3297C19.26 23.6297 18.39 23.8297 17.11 23.9097C15.81 23.9897 15.41 23.9897 12.11 23.9897C8.81 23.9897 8.41 23.9797 7.11 23.9397C5.91 23.9397 5.01 23.7397 4.21 23.4397C3.41 23.1397 2.71 22.7397 2.01 22.1397C1.35 21.4697 0.93 20.7997 0.63 19.9997C0.33 19.2497 0.13 18.3797 0.0700002 17.0997C0 15.8197 0 15.4097 0 12.1497C0 8.8997 0 8.4997 0.21 7.1997C0.21 5.9297 0.41 5.0597 0.71 4.2997C1.01 3.5097 1.41 2.8397 2.01 2.1697C2.68 1.4897 3.35 1.0897 4.15 0.789704C4.9 0.489704 5.87 0.149411 7.15 0.0894108C7.88738 0.0548463 8.30285 0.0601053 9.14583 0.0707758ZM12 2.3197H12C8.79 2.3197 8.41 2.3297 7.15 2.3997C5.98 2.4397 5.33 2.6397 4.93 2.7997C4.36 3.0197 3.96 3.2797 3.53 3.6997C3.13 4.1197 2.86 4.5197 2.63 5.0797C2.48 5.5097 2.28 6.1397 2.23 7.3097C2.16 8.5697 2.16 8.9497 2.16 12.1497V12.1497C2.16 15.3597 2.17 15.7397 2.24 16.9997C2.28 18.1697 2.48 18.8197 2.64 19.2197C2.86 19.7897 3.12 20.1897 3.54 20.6197C3.96 21.0197 4.36 21.2897 4.92 21.5197C5.35 21.6697 5.98 21.8697 7.15 21.9197C8.4 21.9897 8.8 21.9897 12 21.9897C15.2 21.9897 15.58 21.9797 16.84 21.9097C18.01 21.8697 18.66 21.6697 19.06 21.5097C19.63 21.2897 20.03 21.0297 20.46 20.6097C20.86 20.1897 21.13 19.7897 21.36 19.2297C21.51 18.7997 21.71 18.1697 21.76 16.9997C21.83 15.7497 21.83 15.3497 21.83 12.1497C21.83 8.9497 21.82 8.5697 21.75 7.3097C21.71 6.1397 21.51 5.4897 21.35 5.0897C21.13 4.5197 20.87 4.1197 20.45 3.6897C20.03 3.2897 19.63 3.0197 19.07 2.7897C18.64 2.6397 18.01 2.4397 16.84 2.3897C15.58 2.3197 15.2 2.3197 12 2.3197ZM12.5831 15.9578C14.5159 15.6755 16 14.0111 16 12C16 9.79086 14.2091 8 12 8C11.4343 8 10.896 8.11743 10.4082 8.32925C8.99112 8.9446 8 10.3566 8 12C8 14.2091 9.79086 16 12 16C12.1981 16 12.3928 15.9856 12.5831 15.9578ZM18 12.0397C18 8.6597 15.24 5.8397 11.88 5.8397C8.51 5.8397 5.78 8.6397 5.78 12.0397C5.78 15.3397 8.5 18.1397 11.9 18.1397C15.26 18.1397 18 15.3397 18 12.0397ZM18.33 7.2597C19.13 7.2597 19.78 6.6197 19.78 5.8197V5.75781C19.78 4.95781 19.09 4.4597 18.29 4.4597C17.49 4.4597 16.89 5.0597 16.89 5.8597C16.89 6.6597 17.53 7.2597 18.33 7.2597ZM18.9002 5.79995C18.9002 6.13132 18.6316 6.39995 18.3002 6.39995C17.9688 6.39995 17.7002 6.13132 17.7002 5.79995C17.7002 5.46858 17.9688 5.19995 18.3002 5.19995C18.6316 5.19995 18.9002 5.46858 18.9002 5.79995Z" fill="#424242"/>
</svg>
