<?xml version="1.0"?>
<svg xmlns="http://www.w3.org/2000/svg" width="243" height="207" viewBox="0 0 243 207" fill="none">
<path d="M191.297 0H15.5106C6.89359 0 0 6.9 0 14.95V192.05C0 200.1 6.89359 207 15.5106 207H191.872C200.489 207 207.382 200.1 207.382 192.05V14.95C206.808 6.9 199.914 0 191.297 0ZM61.4678 176.525H30.4467V77.625H60.8934V176.525H61.4678ZM45.9572 63.825C36.1913 63.825 28.1488 55.775 28.1488 46C28.1488 36.225 36.1913 28.75 45.9572 28.75C55.7232 28.75 63.7657 36.8 63.7657 46.575C63.7657 56.35 55.7232 63.825 45.9572 63.825ZM176.361 176.525H145.914V128.225C145.914 116.725 145.914 101.775 129.829 101.775C113.744 101.775 111.446 114.425 111.446 127.075V175.95H80.4252V77.625H109.723V90.85H110.297C114.319 82.8 124.659 74.75 139.595 74.75C170.616 74.75 176.361 95.45 176.361 121.9V176.525V176.525Z" fill="#463F39"/>
<path d="M0 2.3H4.02126V14.95H6.31911V2.3H10.3404V0H0V2.3Z" transform="translate(215.425 161.576)" fill="black"/>
<path d="M11.4893 0L7.46805 10.925L3.44678 0H0V14.95H2.29785V4.02499L6.89359 14.95H8.04251L12.6382 4.02499V14.95H14.9361V0H11.4893Z" transform="translate(228.064 161.575)" fill="black"/>
</svg>
