<svg width="655" height="416" viewBox="0 0 655 416" fill="none" xmlns="http://www.w3.org/2000/svg">
<g opacity="0.15" filter="url(#filter0_f)">
<path d="M30 63.3389H625V382.726C625 384.641 623.447 386.194 621.532 386.194H33.4682C31.5528 386.194 30 384.641 30 382.726V63.3389Z" fill="url(#paint0_linear)"/>
</g>
<mask id="mask0" mask-type="alpha" maskUnits="userSpaceOnUse" x="30" y="19" width="595" height="370">
<path d="M30.1208 19.5938H624.094V384.942C624.094 386.857 622.541 388.41 620.626 388.41H33.5891C31.6736 388.41 30.1208 386.857 30.1208 384.942V19.5938Z" fill="white"/>
</mask>
<g mask="url(#mask0)">
<g filter="url(#filter1_d)">
<path d="M30.1208 19.5938H624.094V384.942C624.094 386.857 622.541 388.41 620.626 388.41H33.5891C31.6736 388.41 30.1208 386.857 30.1208 384.942V19.5938Z" fill="white"/>
</g>
</g>
<path d="M30.5 19.4004H624.5V384.7C624.5 386.6 622.9 388.2 621 388.2H34C32.1 388.2 30.5 386.6 30.5 384.7V19.4004Z" fill="white"/>
<path d="M70.7 209.6C70.7 208.3 71.7 207.3 73 207.3H96.4C97.7 207.3 98.7 208.3 98.7 209.6V232.1C98.7 233.4 97.7 234.4 96.4 234.4H73C71.7 234.4 70.7 233.4 70.7 232.1V209.6Z" fill="#E7F1F3"/>
<path d="M101.3 96.0002C101.3 94.7002 102.3 93.7002 103.6 93.7002H586C587.3 93.7002 588.3 94.7002 588.3 96.0002V137.4C588.3 138.7 587.3 139.7 586 139.7H103.6C102.3 139.7 101.3 138.7 101.3 137.4V96.0002Z" fill="#E7F1F3"/>
<g opacity="0.3">
<path opacity="0.3" d="M101.7 149.7C101.7 148.4 102.7 147.4 104 147.4H587C588.3 147.4 589.3 148.4 589.3 149.7V319.2C589.3 320.5 588.3 321.5 587 321.5H104C102.7 321.5 101.7 320.5 101.7 319.2V149.7Z" fill="white"/>
<path opacity="0.3" d="M102 149.7C102 148.6 102.9 147.7 104 147.7H587C588.1 147.7 589 148.6 589 149.7V319.2C589 320.3 588.1 321.2 587 321.2H104C102.9 321.2 102 320.3 102 319.2V149.7Z" stroke="#9DA1A9" stroke-width="0.5669"/>
</g>
<path d="M124.9 116.7C124.9 116.1 125.4 115.6 126 115.6H214C214.6 115.6 215.1 116.1 215.1 116.7V130.3C215.1 130.9 214.6 131.4 214 131.4H126C125.4 131.4 124.9 130.9 124.9 130.3V116.7Z" fill="white"/>
<path d="M206.2 122.5L208.5 124.8L210.8 122.5" stroke="#9DA1A9" stroke-width="0.4335"/>
<path d="M125.2 105.3H126.8V109.7H127.4V105.3H129V104.8H125.3V105.3H125.2ZM129.7 109.7H130.3V106H129.7V109.7ZM130 105.4C130.2 105.4 130.4 105.2 130.4 105C130.4 104.8 130.2 104.6 130 104.6C129.8 104.6 129.6 104.8 129.6 105C129.6 105.2 129.8 105.4 130 105.4ZM131.4 111.1H132V109.1C132.1 109.3 132.4 109.7 133.1 109.7C134 109.7 134.7 109 134.7 107.8C134.7 106.6 134.1 105.9 133.1 105.9C132.4 105.9 132.2 106.3 132 106.5H131.9V106H131.3V111.1H131.4ZM131.9 107.8C131.9 107 132.3 106.4 133 106.4C133.7 106.4 134.1 107 134.1 107.8C134.1 108.6 133.7 109.2 133 109.2C132.3 109.3 131.9 108.7 131.9 107.8ZM137 109.8C138 109.8 138.7 109 138.7 107.9C138.7 106.7 138 106 137 106C136 106 135.3 106.8 135.3 107.9C135.3 109 136 109.8 137 109.8ZM137 109.3C136.2 109.3 135.9 108.6 135.9 107.9C135.9 107.2 136.2 106.5 137 106.5C137.8 106.5 138.1 107.2 138.1 107.9C138.1 108.6 137.8 109.3 137 109.3ZM142.9 109.8C143.6 109.8 143.9 109.4 144 109.2H144.1V109.8H144.7V104.9H144V106.7C143.9 106.5 143.7 106.1 142.9 106.1C142 106.1 141.3 106.8 141.3 108C141.3 109 141.9 109.8 142.9 109.8ZM142.9 109.3C142.2 109.3 141.8 108.7 141.8 107.9C141.8 107.1 142.2 106.5 142.9 106.5C143.6 106.5 144 107.1 144 107.9C144 108.7 143.6 109.3 142.9 109.3ZM147.3 109.8C148.1 109.8 148.6 109.4 148.8 108.9L148.2 108.7C148.1 109.1 147.7 109.3 147.3 109.3C146.6 109.3 146.2 108.9 146.1 108.1H148.8V107.9C148.8 106.5 148 106 147.2 106C146.2 106 145.5 106.8 145.5 107.9C145.5 109 146.2 109.8 147.3 109.8ZM146.1 107.5C146.1 106.9 146.5 106.4 147.2 106.4C147.8 106.4 148.2 106.9 148.2 107.5H146.1ZM153.1 109.8C153.9 109.8 154.4 109.4 154.6 108.9L154 108.7C153.9 109.1 153.5 109.3 153.1 109.3C152.4 109.3 152 108.9 151.9 108.1H154.6V107.9C154.6 106.5 153.8 106 153 106C152 106 151.3 106.8 151.3 107.9C151.3 109 152.1 109.8 153.1 109.8ZM152 107.5C152 106.9 152.4 106.4 153.1 106.4C153.7 106.4 154.1 106.9 154.1 107.5H152ZM155.5 109.7H156.1V107.4C156.1 106.9 156.5 106.5 156.9 106.5C157.3 106.5 157.6 106.8 157.6 107.2V109.7H158.2V107.3C158.2 106.8 158.5 106.5 159 106.5C159.4 106.5 159.8 106.7 159.8 107.3V109.8H160.4V107.3C160.4 106.4 159.9 106 159.3 106C158.8 106 158.4 106.2 158.2 106.6C158 106.2 157.7 106 157.2 106C156.7 106 156.4 106.2 156.2 106.6V106H155.6V109.7H155.5ZM161.4 109.7H162V106H161.4V109.7ZM161.7 105.4C161.9 105.4 162.1 105.2 162.1 105C162.1 104.8 161.9 104.6 161.7 104.6C161.5 104.6 161.3 104.8 161.3 105C161.3 105.2 161.5 105.4 161.7 105.4ZM165.7 106.8C165.5 106.3 165.1 105.9 164.4 105.9C163.6 105.9 163 106.3 163 107C163 107.5 163.3 107.9 164 108L164.6 108.1C165 108.2 165.2 108.4 165.2 108.6C165.2 108.9 164.9 109.2 164.3 109.2C163.8 109.2 163.5 109 163.4 108.6L162.9 108.7C163 109.3 163.6 109.7 164.3 109.7C165.2 109.7 165.7 109.2 165.7 108.6C165.7 108.1 165.4 107.8 164.7 107.6L164.1 107.5C163.7 107.4 163.5 107.2 163.5 107C163.5 106.7 163.8 106.4 164.3 106.4C164.8 106.4 165 106.7 165.1 106.9L165.7 106.8ZM169.2 106.8C169 106.3 168.6 105.9 167.9 105.9C167.1 105.9 166.5 106.3 166.5 107C166.5 107.5 166.8 107.9 167.5 108L168.1 108.1C168.5 108.2 168.7 108.4 168.7 108.6C168.7 108.9 168.4 109.2 167.8 109.2C167.3 109.2 167 109 166.9 108.6L166.4 108.7C166.5 109.3 167.1 109.7 167.8 109.7C168.7 109.7 169.3 109.2 169.3 108.6C169.3 108.1 169 107.8 168.3 107.6L167.7 107.5C167.3 107.4 167.1 107.2 167.1 107C167.1 106.7 167.4 106.4 167.9 106.4C168.4 106.4 168.6 106.7 168.7 106.9L169.2 106.8ZM171.3 109.8C171.9 109.8 172.3 109.5 172.4 109.2V109.7H173V107.3C173 106.1 172.1 106 171.6 106C171 106 170.4 106.2 170.1 106.9L170.6 107.1C170.7 106.8 171 106.5 171.6 106.5C172.1 106.5 172.4 106.8 172.4 107.3C172.4 107.6 172.1 107.6 171.4 107.6C170.7 107.7 170 107.8 170 108.7C170 109.4 170.5 109.8 171.3 109.8ZM171.3 109.3C170.8 109.3 170.5 109.1 170.5 108.7C170.5 108.3 170.9 108.1 171.3 108.1C171.5 108.1 172.2 108 172.3 107.9V108.4C172.4 108.8 172 109.3 171.3 109.3ZM170.9 105.5C170.9 105.3 171 105.1 171.2 105.1C171.6 105.1 171.6 105.4 172.1 105.4C172.5 105.4 172.8 105.1 172.8 104.6H172.4C172.4 104.8 172.3 105 172.1 105C171.8 105 171.6 104.7 171.2 104.7C170.8 104.7 170.5 105 170.5 105.5H170.9ZM175.5 109.8C176.5 109.8 177.2 109 177.2 107.9C177.2 106.7 176.5 106 175.5 106C174.5 106 173.8 106.8 173.8 107.9C173.8 109 174.5 109.8 175.5 109.8ZM175.5 109.3C174.7 109.3 174.4 108.6 174.4 107.9C174.4 107.2 174.7 106.5 175.5 106.5C176.3 106.5 176.6 107.2 176.6 107.9C176.6 108.6 176.3 109.3 175.5 109.3Z" fill="#222427"/>
<path d="M130.6 122.6H131.1C131.1 122 130.5 121.5 129.7 121.5C128.9 121.5 128.3 122 128.3 122.7C128.3 123.3 128.7 123.6 129.3 123.8L129.8 123.9C130.2 124 130.6 124.2 130.6 124.6C130.6 125.1 130.2 125.3 129.6 125.3C129.1 125.3 128.7 125.1 128.6 124.6H128.1C128.1 125.3 128.7 125.7 129.6 125.7C130.5 125.7 131.1 125.2 131.1 124.5C131.1 123.7 130.4 123.5 129.9 123.4L129.5 123.3C129.2 123.2 128.7 123.1 128.7 122.6C128.7 122.2 129.1 121.9 129.6 121.9C130.2 122 130.5 122.2 130.6 122.6ZM132.8 125.8C133.3 125.8 133.6 125.5 133.7 125.3V125.7H134.2V123.7C134.2 122.7 133.5 122.6 133.1 122.6C132.6 122.6 132.1 122.8 131.9 123.3L132.4 123.5C132.5 123.3 132.8 123 133.2 123C133.6 123 133.9 123.2 133.9 123.6C133.9 123.8 133.7 123.8 133.1 123.9C132.5 124 131.9 124.1 131.9 124.8C131.7 125.4 132.2 125.8 132.8 125.8ZM132.9 125.3C132.5 125.3 132.2 125.1 132.2 124.8C132.2 124.4 132.5 124.3 132.9 124.3C133.1 124.3 133.6 124.2 133.7 124.1V124.5C133.7 125 133.4 125.3 132.9 125.3ZM135.1 125.7H135.6V122.6H135.1V125.7ZM135.1 122.2H135.5L136.1 121.3H135.5L135.1 122.2ZM137.6 125.8C138.2 125.8 138.4 125.4 138.5 125.3H138.6V125.8H139.1V121.7H138.6V123.2C138.5 123 138.3 122.7 137.7 122.7C136.9 122.7 136.4 123.3 136.4 124.3C136.3 125.1 136.8 125.8 137.6 125.8ZM137.7 125.3C137.1 125.3 136.8 124.8 136.8 124.1C136.8 123.4 137.1 122.9 137.7 122.9C138.3 122.9 138.6 123.4 138.6 124.1C138.5 124.9 138.2 125.3 137.7 125.3ZM140.8 125.8C141.3 125.8 141.6 125.5 141.7 125.3V125.7H142.2V123.7C142.2 122.7 141.5 122.6 141.1 122.6C140.6 122.6 140.1 122.8 139.9 123.3L140.4 123.5C140.5 123.3 140.8 123 141.2 123C141.6 123 141.9 123.2 141.9 123.6C141.9 123.8 141.7 123.8 141.1 123.9C140.5 124 139.9 124.1 139.9 124.8C139.8 125.4 140.3 125.8 140.8 125.8ZM140.9 125.3C140.5 125.3 140.2 125.1 140.2 124.8C140.2 124.4 140.5 124.3 140.9 124.3C141.1 124.3 141.6 124.2 141.7 124.1V124.5C141.8 125 141.5 125.3 140.9 125.3Z" fill="#9DA1A9"/>
<path d="M138.5 160.3H137.8V163.5H138.5V160.3ZM139.7 162.1C139.7 161.8 139.9 161.6 140.1 161.6C140.4 161.6 140.5 161.8 140.5 162.1V163.5H141.2V162C141.2 161.4 140.9 161.1 140.4 161.1C140 161.1 139.8 161.3 139.7 161.5V161.1H139.1V163.5H139.8V162.1H139.7ZM143 161.1H142.5V161C142.5 160.8 142.6 160.7 142.8 160.7C142.9 160.7 143 160.7 143 160.7L143.1 160.2C143 160.2 142.8 160.1 142.6 160.1C142.2 160.1 141.8 160.4 141.8 160.9V161.1H141.5V161.6H141.8V163.5H142.5V161.6H143V161.1V161.1ZM144.4 163.5C145.1 163.5 145.6 163 145.6 162.3C145.6 161.6 145.2 161.1 144.4 161.1C143.7 161.1 143.2 161.6 143.2 162.3C143.3 163.1 143.7 163.5 144.4 163.5ZM144.4 163C144.1 163 143.9 162.7 143.9 162.3C143.9 161.9 144.1 161.6 144.4 161.6C144.7 161.6 144.9 161.9 144.9 162.3C144.9 162.7 144.7 163 144.4 163ZM146 163.5H146.7V162.2C146.7 161.9 146.9 161.7 147.2 161.7C147.3 161.7 147.4 161.7 147.5 161.7V161.1C147.4 161.1 147.4 161.1 147.3 161.1C147 161.1 146.8 161.3 146.7 161.5V161.1H146V163.5ZM147.8 163.5H148.5V162.1C148.5 161.8 148.7 161.7 148.9 161.7C149.1 161.7 149.3 161.8 149.3 162.1V163.6H149.9V162.2C149.9 162 150 161.8 150.3 161.8C150.5 161.8 150.7 161.9 150.7 162.2V163.7H151.4V162.1C151.4 161.6 151.1 161.3 150.7 161.3C150.4 161.3 150.1 161.5 150 161.7C149.9 161.4 149.7 161.3 149.4 161.3C149.1 161.3 148.8 161.5 148.7 161.7V161.3H148.1V163.5H147.8ZM152.4 163.5C152.8 163.5 153 163.3 153.1 163.1V163.4H153.7V161.8C153.7 161.2 153.2 161 152.7 161C152.1 161 151.8 161.3 151.7 161.7H152.3C152.3 161.5 152.5 161.4 152.7 161.4C152.9 161.4 153.1 161.5 153.1 161.7C153.1 161.9 152.9 161.9 152.5 161.9C152 161.9 151.6 162.1 151.6 162.6C151.6 163.3 152 163.5 152.4 163.5ZM152.6 163.1C152.4 163.1 152.3 163 152.3 162.8C152.3 162.6 152.5 162.5 152.7 162.5C152.8 162.5 153.1 162.4 153.2 162.4V162.7C153.1 162.9 152.9 163.1 152.6 163.1ZM155.5 163.5C156 163.4 156.4 163.1 156.4 162.6H155.8C155.8 162.9 155.6 163 155.4 163C155.1 163 154.9 162.7 154.9 162.3C154.9 161.9 155.1 161.6 155.4 161.6C155.6 161.6 155.8 161.8 155.8 162H156.4C156.4 161.5 156 161.1 155.3 161.1C154.6 161.1 154.1 161.6 154.1 162.3C154.1 163 154.5 163.4 155.1 163.5L155 163.8C155.2 163.8 155.3 163.9 155.3 164C155.3 164.1 155.1 164.2 154.9 164.2V164.5C155.4 164.5 155.7 164.3 155.7 164C155.8 163.8 155.7 163.7 155.5 163.5ZM157.9 163.5C158.6 163.5 159.1 163 159.1 162.3C159.1 161.6 158.7 161.1 157.9 161.1C157.2 161.1 156.7 161.6 156.7 162.3C156.7 163.1 157.1 163.5 157.9 163.5ZM157.9 163C157.6 163 157.4 162.7 157.4 162.3C157.4 161.9 157.6 161.6 157.9 161.6C158.2 161.6 158.4 161.9 158.4 162.3C158.4 162.7 158.2 163 157.9 163ZM157.4 160.8C157.4 160.7 157.5 160.6 157.6 160.6C157.7 160.6 157.7 160.6 157.8 160.7C157.9 160.8 158 160.8 158.2 160.8C158.5 160.8 158.7 160.6 158.7 160.2H158.3C158.3 160.3 158.2 160.4 158.1 160.4C158 160.4 158 160.4 157.9 160.3C157.8 160.2 157.7 160.2 157.5 160.2C157.2 160.2 157 160.4 157 160.8H157.4ZM160.5 163.5C161.1 163.5 161.5 163.2 161.6 162.8H161C160.9 163 160.8 163.1 160.5 163.1C160.2 163.1 160 162.9 160 162.5H161.6V162.3C161.6 161.5 161.1 161.1 160.5 161.1C159.8 161.1 159.4 161.6 159.4 162.3C159.4 163.1 159.8 163.5 160.5 163.5ZM160 162.1C160 161.8 160.2 161.6 160.5 161.6C160.8 161.6 161 161.8 161 162.1H160ZM164 161.8C163.9 161.4 163.6 161.1 163 161.1C162.4 161.1 162 161.4 162 161.8C162 162.2 162.2 162.4 162.7 162.5L163.1 162.6C163.3 162.6 163.4 162.7 163.4 162.8C163.4 162.9 163.2 163 163 163C162.8 163 162.6 162.9 162.6 162.7H162C162.1 163.2 162.4 163.4 163.1 163.4C163.7 163.4 164.2 163.1 164.2 162.6C164.2 162.3 164 162.1 163.5 162H163C162.8 162 162.7 161.9 162.7 161.8C162.7 161.7 162.9 161.6 163.1 161.6C163.3 161.6 163.5 161.7 163.5 161.9L164 161.8ZM166.4 163.5C166.8 163.5 167 163.3 167.1 163.1V163.5H167.7V160.3H167V161.5C166.9 161.3 166.7 161.1 166.3 161.1C165.8 161.1 165.3 161.5 165.3 162.3C165.4 163.1 165.8 163.5 166.4 163.5ZM166.6 163C166.3 163 166.1 162.7 166.1 162.3C166.1 161.9 166.3 161.6 166.6 161.6C166.9 161.6 167.1 161.9 167.1 162.3C167.1 162.7 166.9 163 166.6 163ZM169.3 163.5C170 163.5 170.5 163 170.5 162.3C170.5 161.6 170.1 161.1 169.3 161.1C168.5 161.1 168.1 161.6 168.1 162.3C168.1 163.1 168.6 163.5 169.3 163.5ZM169.3 163C169 163 168.8 162.7 168.8 162.3C168.8 161.9 169 161.6 169.3 161.6C169.6 161.6 169.8 161.9 169.8 162.3C169.8 162.7 169.6 163 169.3 163ZM174.7 161.5C174.6 160.8 174.1 160.4 173.3 160.4C172.5 160.4 171.8 161 171.8 162C171.8 163 172.4 163.6 173.3 163.6C174.1 163.6 174.6 163.1 174.7 162.5H174C173.9 162.8 173.7 163 173.3 163C172.8 163 172.5 162.6 172.5 162C172.5 161.3 172.8 161 173.3 161C173.7 161 173.9 161.2 174 161.6H174.7V161.5ZM175.8 160.3H175.1V163.5H175.8V160.3ZM176.3 163.5H177V161.1H176.3V163.5ZM176.7 160.8C176.9 160.8 177.1 160.7 177.1 160.5C177.1 160.3 176.9 160.2 176.7 160.2C176.5 160.2 176.3 160.3 176.3 160.5C176.3 160.7 176.5 160.8 176.7 160.8ZM178.6 163.5C179.2 163.5 179.6 163.2 179.7 162.8H179.1C179 163 178.9 163.1 178.6 163.1C178.3 163.1 178.1 162.9 178.1 162.5H179.7V162.3C179.7 161.5 179.2 161.1 178.6 161.1C177.9 161.1 177.5 161.6 177.5 162.3C177.4 163.1 177.9 163.5 178.6 163.5ZM178.1 162.1C178.1 161.8 178.3 161.6 178.6 161.6C178.9 161.6 179.1 161.8 179.1 162.1H178.1ZM180.8 162.1C180.8 161.8 181 161.6 181.2 161.6C181.5 161.6 181.6 161.8 181.6 162.1V163.5H182.3V162C182.3 161.4 182 161.1 181.5 161.1C181.1 161.1 180.9 161.3 180.8 161.5V161.1H180.2V163.5H180.9V162.1H180.8ZM184.1 161.1H183.7V160.5H183V161.1H182.7V161.6H183V162.8C183 163.3 183.3 163.5 183.8 163.5C184 163.5 184.1 163.5 184.2 163.4L184 163C184 163 183.9 163 183.8 163C183.7 163 183.6 163 183.6 162.8V161.7H184V161.1H184.1ZM185.6 163.5C186.2 163.5 186.6 163.2 186.7 162.8H186.1C186 163 185.9 163.1 185.6 163.1C185.3 163.1 185.1 162.9 185.1 162.5H186.7V162.3C186.7 161.5 186.2 161.1 185.6 161.1C184.9 161.1 184.5 161.6 184.5 162.3C184.4 163.1 184.8 163.5 185.6 163.5ZM185 162.1C185 161.8 185.2 161.6 185.5 161.6C185.8 161.6 186 161.8 186 162.1H185Z" fill="#29AB67"/>
<path d="M140.6 197.9H139.9V200L138.5 197.9H137.9V201.2H138.6V199.1L140 201.2H140.6V197.9ZM142.3 201.3C143.1 201.3 143.5 200.8 143.5 200C143.5 199.2 143 198.7 142.3 198.7C141.5 198.7 141.1 199.2 141.1 200C141.1 200.7 141.6 201.3 142.3 201.3ZM142.3 200.7C142 200.7 141.8 200.4 141.8 200C141.8 199.6 142 199.2 142.3 199.2C142.6 199.2 142.8 199.5 142.8 200C142.8 200.4 142.7 200.7 142.3 200.7ZM144 201.2H144.7V199.7C144.7 199.4 144.9 199.2 145.1 199.2C145.3 199.2 145.5 199.4 145.5 199.6V201.1H146.2V199.6C146.2 199.3 146.3 199.2 146.6 199.2C146.8 199.2 147 199.3 147 199.6V201.1H147.7V199.4C147.7 198.9 147.4 198.6 146.9 198.6C146.5 198.6 146.3 198.8 146.2 199.1C146.1 198.8 145.9 198.6 145.5 198.6C145.2 198.6 144.9 198.8 144.8 199.1V198.7H144V201.2ZM149.2 201.3C149.8 201.3 150.2 201 150.3 200.5H149.7C149.6 200.7 149.5 200.8 149.2 200.8C148.9 200.8 148.6 200.6 148.6 200.2H150.3V200C150.3 199.2 149.8 198.7 149.1 198.7C148.4 198.7 147.9 199.2 147.9 200C148 200.8 148.5 201.3 149.2 201.3ZM148.7 199.7C148.7 199.4 148.9 199.2 149.2 199.2C149.5 199.2 149.7 199.4 149.7 199.7H148.7ZM154.8 199.1C154.7 198.3 154.1 197.9 153.4 197.9C152.5 197.9 151.9 198.5 151.9 199.6C151.9 200.7 152.6 201.3 153.4 201.3C154.2 201.3 154.8 200.7 154.8 200.1H154.1C154 200.5 153.8 200.7 153.4 200.7C152.9 200.7 152.6 200.3 152.6 199.6C152.6 198.9 152.9 198.5 153.4 198.5C153.8 198.5 154.1 198.7 154.1 199.1H154.8ZM156.4 201.3C157.2 201.3 157.6 200.8 157.6 200C157.6 199.2 157.1 198.7 156.4 198.7C155.6 198.7 155.2 199.2 155.2 200C155.2 200.7 155.7 201.3 156.4 201.3ZM156.4 200.7C156.1 200.7 155.9 200.4 155.9 200C155.9 199.6 156.1 199.2 156.4 199.2C156.7 199.2 156.9 199.5 156.9 200C156.9 200.4 156.7 200.7 156.4 200.7ZM158.1 201.2H158.8V199.7C158.8 199.4 159 199.2 159.2 199.2C159.4 199.2 159.6 199.4 159.6 199.6V201.1H160.3V199.6C160.3 199.3 160.4 199.2 160.7 199.2C160.9 199.2 161.1 199.3 161.1 199.6V201.1H161.8V199.4C161.8 198.9 161.5 198.6 161 198.6C160.6 198.6 160.4 198.8 160.3 199.1C160.2 198.8 160 198.6 159.6 198.6C159.3 198.6 159 198.8 158.9 199.1V198.7H158.2V201.2H158.1ZM162.2 202.1H162.9V200.8C163 201 163.2 201.2 163.6 201.2C164.2 201.2 164.6 200.8 164.6 199.9C164.6 199 164.1 198.6 163.6 198.6C163.2 198.6 163 198.8 162.9 199V198.6H162.2V202.1ZM162.9 200C162.9 199.6 163.1 199.3 163.4 199.3C163.7 199.3 163.9 199.6 163.9 200C163.9 200.4 163.7 200.7 163.4 200.7C163.1 200.7 162.9 200.4 162.9 200ZM165.8 197.9H165.1V201.2H165.8V197.9ZM167.4 201.3C168 201.3 168.4 201 168.5 200.5H167.9C167.8 200.7 167.7 200.8 167.4 200.8C167.1 200.8 166.8 200.6 166.8 200.2H168.5V200C168.5 199.2 168 198.7 167.3 198.7C166.6 198.7 166.1 199.2 166.1 200C166.2 200.8 166.7 201.3 167.4 201.3ZM166.9 199.7C166.9 199.4 167.1 199.2 167.4 199.2C167.7 199.2 167.9 199.4 167.9 199.7H166.9ZM170.3 198.7H169.8V198.1H169.1V198.7H168.8V199.2H169.1V200.5C169.1 201 169.4 201.2 169.9 201.2C170.1 201.2 170.2 201.2 170.3 201.1L170.2 200.6C170.2 200.6 170.1 200.6 170 200.6C169.9 200.6 169.8 200.5 169.8 200.4V199.2H170.3V198.7V198.7ZM171.9 201.3C172.7 201.3 173.1 200.8 173.1 200C173.1 199.2 172.6 198.7 171.9 198.7C171.1 198.7 170.7 199.2 170.7 200C170.7 200.7 171.1 201.3 171.9 201.3ZM171.9 200.7C171.6 200.7 171.4 200.4 171.4 200C171.4 199.6 171.6 199.2 171.9 199.2C172.2 199.2 172.4 199.5 172.4 200C172.4 200.4 172.2 200.7 171.9 200.7ZM174.3 199.8H174.7V199.2L175.2 199.5L175.4 199.1L174.8 198.8L175.4 198.5L175.2 198.1L174.7 198.5V197.9H174.3V198.5L173.8 198.1L173.6 198.5L174.2 198.8L173.6 199.1L173.8 199.5L174.3 199.2V199.8Z" fill="#54585D"/>
<path d="M140.8 229.1C140.7 228.3 140.1 227.9 139.4 227.9C138.5 227.9 137.9 228.5 137.9 229.6C137.9 230.7 138.6 231.3 139.4 231.3C140.2 231.3 140.8 230.7 140.8 230.1H140.1C140 230.5 139.8 230.7 139.4 230.7C138.9 230.7 138.6 230.3 138.6 229.6C138.6 228.9 138.9 228.5 139.4 228.5C139.8 228.5 140.1 228.7 140.1 229.1H140.8ZM141.3 231.2H143.5V230.6H142V229.8H143.4V229.2H142V228.4H143.5V227.8H141.3V231.2ZM144.1 231.2H144.8V230.1H145.4C146.2 230.1 146.6 229.6 146.6 229C146.6 228.3 146.2 227.9 145.4 227.9H144.1V231.2V231.2ZM144.8 229.6V228.5H145.3C145.7 228.5 145.9 228.7 145.9 229C145.9 229.3 145.7 229.6 145.3 229.6H144.8ZM147.8 229.8H148.2V229.2L148.7 229.5L148.9 229.1L148.3 228.8L148.9 228.5L148.7 228.1L148.2 228.5V227.9H147.8V228.5L147.3 228.1L147.1 228.5L147.7 228.8L147.1 229.1L147.3 229.5L147.8 229.2V229.8Z" fill="#54585D"/>
<path d="M137.9 260.4H139.3C140 260.4 140.4 260 140.4 259.5C140.4 259 140.1 258.7 139.7 258.7C140 258.6 140.3 258.4 140.3 258C140.3 257.5 139.9 257.2 139.2 257.2H137.9V260.4ZM138.6 259.8V258.9H139.2C139.5 258.9 139.7 259.1 139.7 259.4C139.7 259.6 139.5 259.8 139.1 259.8H138.6ZM138.6 258.4V257.6H139.1C139.4 257.6 139.6 257.8 139.6 258C139.6 258.3 139.4 258.4 139.1 258.4H138.6V258.4ZM141.6 260.4C142 260.4 142.2 260.2 142.3 260V260.3H143V258.6C143 258 142.5 257.8 141.9 257.8C141.3 257.8 140.9 258.1 140.8 258.5L141.4 258.6C141.4 258.4 141.6 258.3 141.8 258.3C142 258.3 142.2 258.4 142.2 258.6C142.2 258.8 142 258.8 141.6 258.8C141.1 258.8 140.7 259 140.7 259.6C140.7 260.2 141.1 260.4 141.6 260.4ZM141.8 259.9C141.6 259.9 141.4 259.8 141.4 259.6C141.4 259.4 141.6 259.3 141.8 259.3C141.9 259.3 142.2 259.2 142.3 259.2V259.5C142.3 259.7 142.1 259.9 141.8 259.9ZM143.5 260.4H144.2V257.9H143.5V260.4ZM143.8 257.6C144 257.6 144.2 257.4 144.2 257.3C144.2 257.1 144 257 143.8 257C143.6 257 143.4 257.2 143.4 257.3C143.5 257.4 143.6 257.6 143.8 257.6ZM144.7 260.4H145.4V259C145.4 258.7 145.6 258.5 145.9 258.5C146 258.5 146.1 258.5 146.2 258.5V257.9C146.1 257.9 146.1 257.9 146 257.9C145.7 257.9 145.5 258.1 145.4 258.4V258H144.7V260.4V260.4ZM146.6 260.4H147.3V259C147.3 258.7 147.5 258.5 147.8 258.5C147.9 258.5 148 258.5 148.1 258.5V257.9C148 257.9 148 257.9 147.9 257.9C147.6 257.9 147.4 258.1 147.3 258.4V258H146.6V260.4V260.4ZM149.4 260.4C150.2 260.4 150.6 259.9 150.6 259.1C150.6 258.3 150.1 257.8 149.4 257.8C148.6 257.8 148.2 258.3 148.2 259.1C148.2 259.9 148.7 260.4 149.4 260.4ZM149.4 259.9C149.1 259.9 148.9 259.6 148.9 259.2C148.9 258.8 149.1 258.4 149.4 258.4C149.7 258.4 149.9 258.7 149.9 259.2C150 259.6 149.8 259.9 149.4 259.9ZM151.9 258.9H152.3V258.3L152.8 258.7L153 258.3L152.4 258L153 257.7L152.8 257.3L152.3 257.6V257H151.9V257.6L151.4 257.3L151.2 257.7L151.8 258L151.2 258.3L151.4 258.7L151.9 258.3V258.9Z" fill="#54585D"/>
<path d="M136.4 286.4H138.6V285.8H137.1V285H138.5V284.4H137.1V283.6H138.6V283H136.4V286.4ZM140.7 284.8H139.2V285.3H140.7V284.8ZM141.3 286.4H142V284.9C142 284.6 142.2 284.4 142.4 284.4C142.6 284.4 142.8 284.6 142.8 284.8V286.3H143.5V284.8C143.5 284.5 143.6 284.4 143.9 284.4C144.1 284.4 144.3 284.5 144.3 284.8V286.3H145V284.6C145 284.1 144.7 283.8 144.2 283.8C143.8 283.8 143.6 284 143.5 284.3C143.4 284 143.2 283.8 142.8 283.8C142.5 283.8 142.2 284 142.1 284.3V283.9H141.4V286.4H141.3ZM146.1 286.4C146.5 286.4 146.7 286.2 146.8 286V286.3H147.4V284.6C147.4 284 146.9 283.8 146.3 283.8C145.7 283.8 145.3 284.1 145.2 284.5L145.8 284.6C145.8 284.4 146 284.3 146.2 284.3C146.4 284.3 146.6 284.4 146.6 284.6C146.6 284.8 146.4 284.8 146 284.8C145.5 284.8 145.1 285 145.1 285.6C145.3 286.2 145.6 286.4 146.1 286.4ZM146.3 286C146.1 286 145.9 285.9 145.9 285.7C145.9 285.5 146.1 285.4 146.3 285.4C146.5 285.4 146.7 285.3 146.8 285.3V285.6C146.8 285.8 146.6 286 146.3 286ZM148 286.4H148.7V283.9H148V286.4ZM148.4 283.6C148.6 283.6 148.8 283.4 148.8 283.3C148.8 283.1 148.6 283 148.4 283C148.2 283 148 283.2 148 283.3C148 283.4 148.2 283.6 148.4 283.6ZM150 283.1H149.3V286.4H150V283.1Z" fill="#54585D"/>
<path d="M226.2 231.2H228.4V230.6H226.9V229.8H228.3V229.2H226.9V228.4H228.4V227.8H226.2V231.2ZM229.6 229.8C229.6 229.5 229.8 229.3 230.1 229.3C230.4 229.3 230.5 229.5 230.5 229.8V231.3H231.2V229.7C231.2 229.1 230.9 228.8 230.3 228.8C229.9 228.8 229.7 229 229.6 229.3V228.9H228.9V231.4H229.6V229.8ZM232.7 231.2C233.1 231.2 233.3 231 233.4 230.8V231.2H234.1V227.9H233.4V229.1C233.3 228.9 233.1 228.7 232.7 228.7C232.2 228.7 231.7 229.1 231.7 230C231.6 230.8 232.1 231.2 232.7 231.2ZM232.9 230.7C232.6 230.7 232.4 230.4 232.4 230C232.4 229.6 232.6 229.3 232.9 229.3C233.2 229.3 233.4 229.6 233.4 230C233.4 230.4 233.2 230.7 232.9 230.7ZM235.8 231.3C236.4 231.3 236.8 231 236.9 230.5H236.3C236.2 230.7 236.1 230.8 235.8 230.8C235.5 230.8 235.2 230.6 235.2 230.2H236.9V230C236.9 229.2 236.4 228.7 235.7 228.7C235 228.7 234.5 229.2 234.5 230C234.5 230.8 235 231.3 235.8 231.3ZM235.2 229.7C235.2 229.4 235.4 229.2 235.7 229.2C236 229.2 236.2 229.4 236.2 229.7H235.2ZM237.3 231.2H238V229.8C238 229.5 238.2 229.3 238.5 229.3C238.6 229.3 238.7 229.3 238.8 229.3V228.7C238.7 228.7 238.7 228.7 238.6 228.7C238.3 228.7 238.1 228.9 238 229.2V228.8H237.3V231.2V231.2ZM240.2 231.3C240.8 231.3 241.2 231 241.3 230.5H240.7C240.6 230.7 240.5 230.8 240.2 230.8C239.9 230.8 239.6 230.6 239.6 230.2H241.3V230C241.3 229.2 240.8 228.7 240.1 228.7C239.4 228.7 238.9 229.2 238.9 230C239 230.8 239.4 231.3 240.2 231.3ZM239.7 229.7C239.7 229.4 239.9 229.2 240.2 229.2C240.5 229.2 240.7 229.4 240.7 229.7H239.7ZM243 231.3C243.6 231.2 243.9 230.9 244 230.4H243.4C243.4 230.7 243.2 230.8 243 230.8C242.7 230.8 242.5 230.5 242.5 230.1C242.5 229.6 242.7 229.4 243 229.4C243.3 229.4 243.4 229.6 243.4 229.8H244C244 229.2 243.5 228.9 242.9 228.9C242.1 228.9 241.7 229.4 241.7 230.2C241.7 230.9 242.1 231.4 242.7 231.5L242.6 231.8C242.8 231.8 242.9 231.9 242.9 232C242.9 232.1 242.7 232.2 242.5 232.2V232.5C243 232.5 243.4 232.3 243.4 232C243.4 231.5 243.3 231.4 243 231.3ZM245.6 231.3C246.4 231.3 246.8 230.8 246.8 230C246.8 229.2 246.3 228.7 245.6 228.7C244.8 228.7 244.4 229.2 244.4 230C244.3 230.7 244.8 231.3 245.6 231.3ZM245.6 230.7C245.3 230.7 245.1 230.4 245.1 230C245.1 229.6 245.3 229.2 245.6 229.2C245.9 229.2 246.1 229.5 246.1 230C246.1 230.4 245.9 230.7 245.6 230.7ZM248 229.8H248.4V229.2L248.9 229.5L249.1 229.1L248.5 228.8L249.1 228.5L248.9 228.1L248.4 228.5V227.9H248V228.5L247.5 228.1L247.3 228.5L247.9 228.8L247.3 229.1L247.5 229.5L248 229.2V229.8Z" fill="#54585D"/>
<path d="M267.6 258.2C267.5 257.4 266.9 257 266.2 257C265.3 257 264.7 257.6 264.7 258.7C264.7 259.8 265.4 260.4 266.2 260.4C267 260.4 267.6 259.8 267.6 259.2H266.9C266.8 259.6 266.6 259.8 266.2 259.8C265.7 259.8 265.4 259.4 265.4 258.7C265.4 258 265.7 257.6 266.2 257.6C266.6 257.6 266.9 257.8 266.9 258.2H267.6ZM268.1 260.4H268.8V257.9H268.1V260.4ZM268.5 257.6C268.7 257.6 268.9 257.4 268.9 257.3C268.9 257.1 268.7 257 268.5 257C268.3 257 268.1 257.2 268.1 257.3C268.1 257.4 268.3 257.6 268.5 257.6ZM270.3 260.4C270.7 260.4 270.9 260.2 271 260V260.4H271.7V257.1H271V258.3C270.9 258.1 270.7 257.9 270.3 257.9C269.8 257.9 269.3 258.3 269.3 259.2C269.3 259.9 269.7 260.4 270.3 260.4ZM270.5 259.8C270.2 259.8 270 259.5 270 259.1C270 258.7 270.2 258.4 270.5 258.4C270.8 258.4 271 258.7 271 259.1C271 259.6 270.8 259.8 270.5 259.8ZM272.9 260.4C273.3 260.4 273.5 260.2 273.6 260V260.3H274.3V258.6C274.3 258 273.8 257.8 273.3 257.8C272.7 257.8 272.3 258.1 272.2 258.5L272.8 258.6C272.8 258.4 273 258.3 273.2 258.3C273.4 258.3 273.6 258.4 273.6 258.6C273.6 258.8 273.4 258.8 273 258.8C272.5 258.8 272.1 259 272.1 259.6C272.1 260.2 272.5 260.4 272.9 260.4ZM273.1 259.9C272.9 259.9 272.7 259.8 272.7 259.6C272.7 259.4 272.9 259.3 273.1 259.3C273.2 259.3 273.5 259.2 273.6 259.2V259.5C273.7 259.7 273.4 259.9 273.1 259.9ZM275.8 260.4C276.2 260.4 276.4 260.2 276.5 260V260.4H277.2V257.1H276.5V258.3C276.4 258.1 276.2 257.9 275.8 257.9C275.3 257.9 274.8 258.3 274.8 259.2C274.8 259.9 275.2 260.4 275.8 260.4ZM276 259.8C275.7 259.8 275.5 259.5 275.5 259.1C275.5 258.7 275.7 258.4 276 258.4C276.3 258.4 276.5 258.7 276.5 259.1C276.5 259.6 276.3 259.8 276 259.8ZM278.9 260.4C279.5 260.4 279.9 260.1 280 259.6H279.4C279.3 259.8 279.2 259.9 278.9 259.9C278.6 259.9 278.3 259.7 278.3 259.3H280V259.1C280 258.3 279.5 257.8 278.8 257.8C278.1 257.8 277.6 258.3 277.6 259.1C277.7 259.9 278.1 260.4 278.9 260.4ZM278.3 258.9C278.3 258.6 278.5 258.4 278.8 258.4C279.1 258.4 279.3 258.6 279.3 258.9H278.3ZM281.3 258.9H281.7V258.3L282.2 258.7L282.4 258.3L281.8 258L282.4 257.7L282.2 257.3L281.7 257.6V257H281.3V257.6L280.8 257.3L280.6 257.7L281.2 258L280.6 258.3L280.8 258.7L281.3 258.3V258.9Z" fill="#54585D"/>
<path d="M341.6 283.7H342.6V286.4H343.3V283.7H344.3V283.1H341.6V283.7ZM345.5 286.4C346.1 286.4 346.5 286.1 346.6 285.6H346C345.9 285.8 345.8 285.9 345.5 285.9C345.2 285.9 344.9 285.7 344.9 285.3H346.6V285.1C346.6 284.3 346.1 283.8 345.4 283.8C344.7 283.8 344.2 284.3 344.2 285.1C344.3 286 344.8 286.4 345.5 286.4ZM345 284.9C345 284.6 345.2 284.4 345.5 284.4C345.8 284.4 346 284.6 346 284.9H345ZM347.8 283.1H347.1V286.4H347.8V283.1ZM349.5 286.4C350.1 286.4 350.5 286.1 350.6 285.6H350C349.9 285.8 349.8 285.9 349.5 285.9C349.2 285.9 348.9 285.7 348.9 285.3H350.6V285.1C350.6 284.3 350.1 283.8 349.4 283.8C348.7 283.8 348.2 284.3 348.2 285.1C348.3 286 348.7 286.4 349.5 286.4ZM348.9 284.9C348.9 284.6 349.1 284.4 349.4 284.4C349.7 284.4 349.9 284.6 349.9 284.9H348.9ZM352.4 283.9H351.9V283.7C351.9 283.5 352 283.4 352.2 283.4C352.3 283.4 352.4 283.4 352.4 283.4L352.5 282.9C352.4 282.9 352.2 282.8 352 282.8C351.5 282.8 351.2 283.1 351.2 283.6V283.8H350.9V284.3H351.2V286.3H351.9V284.3H352.4V283.9ZM353.9 286.4C354.7 286.4 355.1 285.9 355.1 285.1C355.1 284.3 354.6 283.8 353.9 283.8C353.1 283.8 352.7 284.3 352.7 285.1C352.6 285.9 353.1 286.4 353.9 286.4ZM353.9 285.9C353.6 285.9 353.4 285.6 353.4 285.2C353.4 284.8 353.6 284.4 353.9 284.4C354.2 284.4 354.4 284.7 354.4 285.2C354.4 285.6 354.2 285.9 353.9 285.9ZM356.2 285C356.2 284.7 356.4 284.5 356.7 284.5C357 284.5 357.1 284.7 357.1 285V286.5H357.8V284.9C357.8 284.3 357.5 284 356.9 284C356.5 284 356.3 284.2 356.2 284.5V284.1H355.5V286.6H356.2V285ZM359.5 286.4C360.1 286.4 360.5 286.1 360.6 285.6H360C359.9 285.8 359.8 285.9 359.5 285.9C359.2 285.9 358.9 285.7 358.9 285.3H360.6V285.1C360.6 284.3 360.1 283.8 359.4 283.8C358.7 283.8 358.2 284.3 358.2 285.1C358.2 286 358.7 286.4 359.5 286.4ZM358.9 284.9C358.9 284.6 359.1 284.4 359.4 284.4C359.7 284.4 359.9 284.6 359.9 284.9H358.9Z" fill="#54585D"/>
<path d="M397.9 199.1C397.8 198.3 397.2 197.9 396.5 197.9C395.6 197.9 395 198.5 395 199.6C395 200.7 395.7 201.3 396.5 201.3C397.3 201.3 397.9 200.7 397.9 200.1H397.2C397.1 200.5 396.9 200.7 396.5 200.7C396 200.7 395.7 200.3 395.7 199.6C395.7 198.9 396 198.5 396.5 198.5C396.9 198.5 397.2 198.7 397.2 199.1H397.9ZM398.4 201.2H399.1V200.1H399.7C400.5 200.1 400.9 199.6 400.9 199C400.9 198.3 400.5 197.9 399.7 197.9H398.4V201.2ZM399.1 199.6V198.5H399.6C400 198.5 400.2 198.7 400.2 199C400.2 199.3 400 199.6 399.6 199.6H399.1ZM401.4 201.2H402.1V199.8H403.4V199.2H402.1V198.4H403.6V197.8H401.4V201.2ZM404.8 199.8H405.2V199.2L405.7 199.5L405.9 199.1L405.3 198.8L405.9 198.5L405.7 198.1L405.2 198.5V197.9H404.8V198.5L404.3 198.1L404.1 198.5L404.7 198.8L404.1 199.1L404.3 199.5L404.8 199.2V199.8Z" fill="#54585D"/>
<path d="M397.8 227.9H397.1V230L395.7 227.9H395V231.2H395.7V229.1L397.1 231.2H397.7V227.9H397.8ZM399.9 230.2C399.9 230.5 399.7 230.7 399.4 230.7C399.1 230.7 399 230.5 399 230.2V228.7H398.3V230.3C398.3 230.9 398.6 231.2 399.1 231.2C399.5 231.2 399.7 231 399.9 230.7V231.1H400.6V228.6H399.9V230.2V230.2ZM399.2 228.4H399.7L400.2 227.7H399.6L399.2 228.4ZM401.2 231.2H401.9V229.7C401.9 229.4 402.1 229.2 402.3 229.2C402.5 229.2 402.7 229.4 402.7 229.6V231.1H403.4V229.6C403.4 229.3 403.5 229.2 403.8 229.2C404 229.2 404.2 229.3 404.2 229.6V231.1H404.9V229.4C404.9 228.9 404.6 228.6 404.1 228.6C403.7 228.6 403.5 228.8 403.4 229.1C403.3 228.8 403.1 228.6 402.7 228.6C402.4 228.6 402.1 228.8 402 229.1V228.7H401.3V231.2H401.2ZM406.4 231.3C407 231.3 407.4 231 407.5 230.5H406.9C406.8 230.7 406.7 230.8 406.4 230.8C406.1 230.8 405.8 230.6 405.8 230.2H407.5V230C407.5 229.2 407 228.7 406.3 228.7C405.6 228.7 405.1 229.2 405.1 230C405.2 230.8 405.7 231.3 406.4 231.3ZM405.9 229.7C405.9 229.4 406.1 229.2 406.4 229.2C406.7 229.2 406.9 229.4 406.9 229.7H405.9ZM408 231.2H408.7V229.8C408.7 229.5 408.9 229.3 409.2 229.3C409.3 229.3 409.4 229.3 409.5 229.3V228.7C409.4 228.7 409.4 228.7 409.3 228.7C409 228.7 408.8 228.9 408.7 229.2V228.8H408V231.2ZM410.9 231.3C411.7 231.3 412.1 230.8 412.1 230C412.1 229.2 411.6 228.7 410.9 228.7C410.1 228.7 409.7 229.2 409.7 230C409.6 230.7 410.1 231.3 410.9 231.3ZM410.9 230.7C410.6 230.7 410.4 230.4 410.4 230C410.4 229.6 410.6 229.2 410.9 229.2C411.2 229.2 411.4 229.5 411.4 230C411.4 230.4 411.2 230.7 410.9 230.7ZM413.3 229.8H413.7V229.2L414.2 229.5L414.4 229.1L413.8 228.8L414.4 228.5L414.2 228.1L413.7 228.5V227.9H413.3V228.5L412.8 228.1L412.6 228.5L413.2 228.8L412.6 229.1L412.8 229.5L413.3 229.2V229.8Z" fill="#54585D"/>
<path d="M395 260.4H397.2V259.8H395.7V259H397.1V258.4H395.7V257.6H397.2V257H395V260.4ZM399.8 258.6C399.7 258.1 399.4 257.9 398.7 257.9C398.1 257.9 397.7 258.2 397.7 258.7C397.7 259.1 397.9 259.3 398.4 259.4L398.8 259.5C399 259.5 399.1 259.6 399.1 259.7C399.1 259.8 398.9 260 398.7 260C398.5 260 398.3 259.9 398.3 259.7H397.6C397.7 260.2 398.1 260.5 398.7 260.5C399.3 260.5 399.8 260.2 399.8 259.7C399.8 259.3 399.6 259.1 399.1 259L398.7 258.9C398.5 258.9 398.4 258.8 398.4 258.7C398.4 258.6 398.6 258.5 398.8 258.5C399 258.5 399.2 258.6 399.2 258.8L399.8 258.6ZM401.6 257.9H401.1V257.3H400.4V257.9H400.1V258.4H400.4V259.7C400.4 260.2 400.7 260.4 401.2 260.4C401.4 260.4 401.5 260.4 401.6 260.3L401.5 259.8C401.5 259.8 401.4 259.8 401.3 259.8C401.2 259.8 401.1 259.7 401.1 259.6V258.4H401.6V257.9ZM402.8 260.4C403.2 260.4 403.4 260.2 403.5 260V260.3H404.2V258.6C404.2 258 403.7 257.8 403.1 257.8C402.5 257.8 402.1 258.1 402 258.5L402.6 258.6C402.6 258.4 402.8 258.3 403 258.3C403.2 258.3 403.4 258.4 403.4 258.6C403.4 258.8 403.2 258.8 402.8 258.8C402.3 258.8 401.9 259 401.9 259.6C402 260.2 402.3 260.4 402.8 260.4ZM403 259.9C402.8 259.9 402.6 259.8 402.6 259.6C402.6 259.4 402.8 259.3 403 259.3C403.1 259.3 403.4 259.2 403.5 259.2V259.5C403.5 259.7 403.3 259.9 403 259.9ZM405.6 260.4C406 260.4 406.2 260.2 406.3 260V260.4H407V257.1H406.3V258.3C406.2 258.1 406 257.9 405.6 257.9C405.1 257.9 404.6 258.3 404.6 259.2C404.6 259.9 405.1 260.4 405.6 260.4ZM405.8 259.8C405.5 259.8 405.3 259.5 405.3 259.1C405.3 258.7 405.5 258.4 405.8 258.4C406.1 258.4 406.3 258.7 406.3 259.1C406.4 259.6 406.2 259.8 405.8 259.8ZM408.7 260.4C409.5 260.4 409.9 259.9 409.9 259.1C409.9 258.3 409.4 257.8 408.7 257.8C407.9 257.8 407.5 258.3 407.5 259.1C407.5 259.9 408 260.4 408.7 260.4ZM408.7 259.9C408.4 259.9 408.2 259.6 408.2 259.2C408.2 258.8 408.4 258.4 408.7 258.4C409 258.4 409.2 258.7 409.2 259.2C409.2 259.6 409.1 259.9 408.7 259.9ZM411.2 258.9H411.6V258.3L412.1 258.7L412.3 258.3L411.7 258L412.3 257.7L412.1 257.3L411.6 257.6V257H411.2V257.6L410.7 257.3L410.5 257.7L411.1 258L410.5 258.3L410.7 258.7L411.2 258.3V258.9Z" fill="#54585D"/>
<path d="M461.3 229.1C461.2 228.3 460.6 227.9 459.9 227.9C459 227.9 458.4 228.5 458.4 229.6C458.4 230.7 459.1 231.3 459.9 231.3C460.7 231.3 461.3 230.7 461.3 230.1H460.6C460.5 230.5 460.3 230.7 459.9 230.7C459.4 230.7 459.1 230.3 459.1 229.6C459.1 228.9 459.4 228.5 459.9 228.5C460.3 228.5 460.6 228.7 460.6 229.1H461.3ZM462.9 231.3C463.7 231.3 464.1 230.8 464.1 230C464.1 229.2 463.6 228.7 462.9 228.7C462.1 228.7 461.7 229.2 461.7 230C461.7 230.7 462.2 231.3 462.9 231.3ZM462.9 230.7C462.6 230.7 462.4 230.4 462.4 230C462.4 229.6 462.6 229.2 462.9 229.2C463.2 229.2 463.4 229.5 463.4 230C463.5 230.4 463.3 230.7 462.9 230.7ZM464.6 231.2H465.3V229.7C465.3 229.4 465.5 229.2 465.7 229.2C465.9 229.2 466.1 229.4 466.1 229.6V231.1H466.8V229.6C466.8 229.3 466.9 229.2 467.2 229.2C467.4 229.2 467.6 229.3 467.6 229.6V231.1H468.3V229.4C468.3 228.9 468 228.6 467.5 228.6C467.1 228.6 466.9 228.8 466.8 229.1C466.7 228.8 466.5 228.6 466.1 228.6C465.8 228.6 465.5 228.8 465.4 229.1V228.7H464.7V231.2H464.6ZM468.7 232.1H469.4V230.8C469.5 231 469.7 231.2 470.1 231.2C470.7 231.2 471.1 230.8 471.1 229.9C471.1 229 470.6 228.6 470.1 228.6C469.7 228.6 469.5 228.8 469.4 229V228.6H468.7V232.1ZM469.4 230C469.4 229.6 469.6 229.3 469.9 229.3C470.2 229.3 470.4 229.6 470.4 230C470.4 230.4 470.2 230.7 469.9 230.7C469.6 230.7 469.4 230.4 469.4 230ZM472.3 227.9H471.6V231.2H472.3V227.9ZM474 231.3C474.6 231.3 475 231 475.1 230.5H474.5C474.4 230.7 474.3 230.8 474 230.8C473.7 230.8 473.4 230.6 473.4 230.2H475.1V230C475.1 229.2 474.6 228.7 473.9 228.7C473.2 228.7 472.7 229.2 472.7 230C472.8 230.8 473.2 231.3 474 231.3ZM473.4 229.7C473.4 229.4 473.6 229.2 473.9 229.2C474.2 229.2 474.4 229.4 474.4 229.7H473.4ZM475.6 231.2H476.3V229.7C476.3 229.4 476.5 229.2 476.7 229.2C476.9 229.2 477.1 229.4 477.1 229.6V231.1H477.8V229.6C477.8 229.3 477.9 229.2 478.2 229.2C478.4 229.2 478.6 229.3 478.6 229.6V231.1H479.3V229.4C479.3 228.9 479 228.6 478.5 228.6C478.1 228.6 477.9 228.8 477.8 229.1C477.7 228.8 477.5 228.6 477.1 228.6C476.8 228.6 476.5 228.8 476.4 229.1V228.7H475.7V231.2H475.6ZM480.8 231.3C481.4 231.3 481.8 231 481.9 230.5H481.3C481.2 230.7 481.1 230.8 480.8 230.8C480.5 230.8 480.2 230.6 480.2 230.2H481.9V230C481.9 229.2 481.4 228.7 480.7 228.7C480 228.7 479.5 229.2 479.5 230C479.6 230.8 480.1 231.3 480.8 231.3ZM480.3 229.7C480.3 229.4 480.5 229.2 480.8 229.2C481.1 229.2 481.3 229.4 481.3 229.7H480.3ZM483.1 229.8C483.1 229.5 483.3 229.3 483.6 229.3C483.9 229.3 484 229.5 484 229.8V231.3H484.7V229.7C484.7 229.1 484.4 228.8 483.8 228.8C483.4 228.8 483.2 229 483.1 229.3V228.9H482.4V231.4H483.1V229.8ZM486.5 228.7H486V228.1H485.3V228.7H485V229.2H485.3V230.5C485.3 231 485.6 231.2 486.1 231.2C486.3 231.2 486.4 231.2 486.5 231.1L486.4 230.6C486.4 230.6 486.3 230.6 486.2 230.6C486.1 230.6 486 230.5 486 230.4V229.2H486.5V228.7ZM488.1 231.3C488.9 231.3 489.3 230.8 489.3 230C489.3 229.2 488.8 228.7 488.1 228.7C487.3 228.7 486.9 229.2 486.9 230C486.9 230.7 487.3 231.3 488.1 231.3ZM488.1 230.7C487.8 230.7 487.6 230.4 487.6 230C487.6 229.6 487.8 229.2 488.1 229.2C488.4 229.2 488.6 229.5 488.6 230C488.6 230.4 488.4 230.7 488.1 230.7ZM490.5 229.8H490.9V229.2L491.4 229.5L491.6 229.1L491 228.8L491.6 228.5L491.4 228.1L490.9 228.5V227.9H490.5V228.5L490 228.1L489.8 228.5L490.4 228.8L489.8 229.1L490 229.5L490.5 229.2V229.8Z" fill="#54585D"/>
<path d="M399.3 214.1H397.2V214.5H399.3V214.1ZM401.4 214.1H399.3V214.5H401.4V214.1ZM403.4 214.1H401.3V214.5H403.4V214.1ZM405.2 212.5H403.8V212.9H405.2V212.5ZM407.6 214.1H405.5V214.5H407.6V214.1ZM409.6 214.1H407.5V214.5H409.6V214.1ZM411.7 214.1H409.6V214.5H411.7V214.1ZM413.4 212.5H412V212.9H413.4V212.5ZM415.8 214.1H413.7V214.5H415.8V214.1ZM417.9 214.1H415.8V214.5H417.9V214.1ZM419.9 214.1H417.8V214.5H419.9V214.1ZM421.7 212.5H420.3V212.9H421.7V212.5ZM424.1 214.1H422V214.5H424.1V214.1ZM426.1 214.1H424V214.5H426.1V214.1Z" fill="#54585D"/>
<path d="M347 296.8C347 297.6 347.2 298.3 347.6 298.9H347.9C347.6 298.5 347.3 297.6 347.3 296.8C347.3 296 347.5 295.2 347.9 294.7H347.6C347.3 295.3 347 296 347 296.8ZM350.2 298.2H348.1V298.6H350.2V298.2ZM352.3 298.2H350.2V298.6H352.3V298.2ZM353.5 296.8C353.5 296 353.3 295.3 352.9 294.7H352.6C352.9 295.1 353.2 296 353.2 296.8C353.2 297.6 353 298.4 352.6 298.9H352.9C353.2 298.3 353.5 297.6 353.5 296.8ZM357.3 298.2H355.2V298.6H357.3V298.2ZM359.3 298.2H357.2V298.6H359.3V298.2ZM361.4 298.2H359.3V298.6H361.4V298.2ZM363.4 298.2H361.3V298.6H363.4V298.2ZM365.5 298.2H363.4V298.6H365.5V298.2ZM367.5 298.2H365.4V298.6H367.5V298.2ZM369.6 298.2H367.5V298.6H369.6V298.2ZM371.3 296.6H369.9V297H371.3V296.6ZM373.7 298.2H371.6V298.6H373.7V298.2ZM375.8 298.2H373.7V298.6H375.8V298.2ZM377.8 298.2H375.7V298.6H377.8V298.2ZM379.9 298.2H377.8V298.6H379.9V298.2ZM381.9 298.2H379.8V298.6H381.9V298.2ZM384 298.2H381.9V298.6H384V298.2ZM386 298.2H383.9V298.6H386V298.2ZM388.1 298.2H386V298.6H388.1V298.2Z" fill="#54585D"/>
<path d="M143.1 243.2H141V243.6H143.1V243.2ZM145.1 243.2H143V243.6H145.1V243.2ZM147.2 243.2H145.1V243.6H147.2V243.2ZM149.2 243.2H147.1V243.6H149.2V243.2ZM151.3 243.2H149.2V243.6H151.3V243.2ZM153.3 243.2H151.2V243.6H153.3V243.2ZM155.1 241.6H153.7V242H155.1V241.6ZM157.5 243.2H155.4V243.6H157.5V243.2ZM159.5 243.2H157.4V243.6H159.5V243.2ZM161.6 243.2H159.5V243.6H161.6V243.2Z" fill="#54585D"/>
<path d="M247.8 116.7C247.8 116.1 248.3 115.6 248.9 115.6H336.9C337.5 115.6 338 116.1 338 116.7V130.3C338 130.9 337.5 131.4 336.9 131.4H248.9C248.3 131.4 247.8 130.9 247.8 130.3V116.7V116.7Z" fill="white"/>
<path d="M329.1 122.5L331.4 124.8L333.7 122.5" stroke="#9DA1A9" stroke-width="0.4335"/>
<path d="M248.4 109.7H249V107.5H251.1V107H249V105.3H251.4V104.8H248.4V109.7ZM252.3 109.7H252.9V106H252.3V109.7ZM252.6 105.4C252.8 105.4 253 105.2 253 105C253 104.8 252.8 104.6 252.6 104.6C252.4 104.6 252.2 104.8 252.2 105C252.2 105.2 252.4 105.4 252.6 105.4ZM254.5 107.5C254.5 106.9 254.9 106.5 255.4 106.5C255.9 106.5 256.3 106.8 256.3 107.4V109.7H256.9V107.3C256.9 106.4 256.4 105.9 255.6 105.9C255 105.9 254.7 106.2 254.5 106.5V106H253.9V109.7H254.5V107.5V107.5ZM259 109.8C259.6 109.8 260 109.5 260.1 109.2V109.7H260.7V107.3C260.7 106.1 259.8 106 259.3 106C258.7 106 258.1 106.2 257.8 106.9L258.3 107.1C258.4 106.8 258.7 106.5 259.3 106.5C259.8 106.5 260.1 106.8 260.1 107.3C260.1 107.6 259.8 107.6 259.1 107.6C258.4 107.7 257.7 107.8 257.7 108.7C257.7 109.4 258.3 109.8 259 109.8ZM259.1 109.3C258.6 109.3 258.3 109.1 258.3 108.7C258.3 108.3 258.7 108.1 259.1 108.1C259.3 108.1 260 108 260.1 107.9V108.4C260.1 108.8 259.8 109.3 259.1 109.3ZM262.3 104.7H261.7V109.6H262.3V104.7ZM263.4 109.7H264V106H263.4V109.7ZM263.6 105.4C263.8 105.4 264 105.2 264 105C264 104.8 263.8 104.6 263.6 104.6C263.4 104.6 263.2 104.8 263.2 105C263.2 105.2 263.4 105.4 263.6 105.4ZM266.4 109.8C267.1 109.8 267.4 109.4 267.5 109.2H267.6V109.8H268.2V104.9H267.6V106.7C267.5 106.5 267.3 106.1 266.5 106.1C265.6 106.1 264.9 106.8 264.9 108C264.8 109 265.4 109.8 266.4 109.8ZM266.5 109.3C265.8 109.3 265.4 108.7 265.4 107.9C265.4 107.1 265.8 106.5 266.5 106.5C267.2 106.5 267.6 107.1 267.6 107.9C267.5 108.7 267.1 109.3 266.5 109.3ZM270.3 109.8C270.9 109.8 271.3 109.5 271.4 109.2V109.7H272V107.3C272 106.1 271.1 106 270.6 106C270 106 269.4 106.2 269.1 106.9L269.6 107.1C269.7 106.8 270 106.5 270.6 106.5C271.1 106.5 271.4 106.8 271.4 107.3C271.4 107.6 271.1 107.6 270.4 107.6C269.7 107.7 269 107.8 269 108.7C269 109.4 269.6 109.8 270.3 109.8ZM270.4 109.3C269.9 109.3 269.6 109.1 269.6 108.7C269.6 108.3 270 108.1 270.4 108.1C270.6 108.1 271.3 108 271.4 107.9V108.4C271.4 108.8 271.1 109.3 270.4 109.3ZM274.4 109.8C275.1 109.8 275.4 109.4 275.5 109.2H275.6V109.8H276.2V104.9H275.6V106.7C275.5 106.5 275.3 106.1 274.5 106.1C273.6 106.1 272.9 106.8 272.9 108C272.9 109 273.5 109.8 274.4 109.8ZM274.5 109.3C273.8 109.3 273.4 108.7 273.4 107.9C273.4 107.1 273.8 106.5 274.5 106.5C275.2 106.5 275.6 107.1 275.6 107.9C275.6 108.7 275.2 109.3 274.5 109.3ZM278.8 109.8C279.6 109.8 280.1 109.4 280.3 108.9L279.7 108.7C279.6 109.1 279.2 109.3 278.8 109.3C278.1 109.3 277.7 108.9 277.6 108.1H280.3V107.9C280.3 106.5 279.5 106 278.7 106C277.7 106 277 106.8 277 107.9C277 109 277.7 109.8 278.8 109.8ZM277.7 107.5C277.7 106.9 278.1 106.4 278.8 106.4C279.4 106.4 279.8 106.9 279.8 107.5H277.7Z" fill="#222427"/>
<path d="M254.6 121.6H254.1V124.8L251.8 121.6H251.3V125.7H251.8V122.5L254 125.7H254.5V121.6H254.6ZM255.5 125.7H256V123.9H257.8V123.5H256V122H258V121.6H255.5V125.7ZM260.6 123.7H258.8V124.1H260.6V123.7ZM262.7 125.8C263.3 125.8 263.8 125.5 263.9 125L263.4 124.9C263.3 125.2 263 125.4 262.6 125.4C262 125.4 261.7 125 261.6 124.4H263.8V124.2C263.8 123 263.1 122.7 262.5 122.7C261.7 122.7 261.1 123.4 261.1 124.3C261.3 125.1 261.8 125.8 262.7 125.8ZM261.8 123.9C261.8 123.4 262.2 123 262.7 123C263.2 123 263.5 123.4 263.5 123.9H261.8ZM266.8 123.8C266.8 123.3 267.1 123 267.6 123C268 123 268.3 123.3 268.3 123.8V125.7H268.8V123.7C268.8 122.9 268.4 122.5 267.8 122.5C267.3 122.5 267 122.7 266.9 123V122.5H266.4V125.6H266.9V123.8H266.8ZM270.9 125.8C271.7 125.8 272.3 125.2 272.3 124.2C272.3 123.2 271.7 122.6 270.9 122.6C270.1 122.6 269.5 123.2 269.5 124.2C269.5 125.1 270 125.8 270.9 125.8ZM270.9 125.3C270.3 125.3 270 124.8 270 124.1C270 123.5 270.3 122.9 270.9 122.9C271.5 122.9 271.8 123.5 271.8 124.1C271.8 124.8 271.5 125.3 270.9 125.3ZM273 125.7H273.5V123.7C273.5 123.3 273.8 123 274.3 123C274.4 123 274.6 123 274.6 123V122.5C274.5 122.5 274.4 122.5 274.4 122.5C274 122.5 273.7 122.7 273.6 123V122.5H273V125.7ZM275.1 125.7H275.6V123.8C275.6 123.3 275.9 123 276.3 123C276.7 123 276.9 123.2 276.9 123.6V125.7H277.4V123.7C277.4 123.3 277.6 123 278.1 123C278.4 123 278.7 123.2 278.7 123.6V125.7H279.2V123.6C279.2 122.9 278.8 122.5 278.3 122.5C277.9 122.5 277.5 122.7 277.4 123C277.2 122.7 277 122.5 276.6 122.5C276.2 122.5 275.9 122.7 275.8 123V122.5H275.3V125.7H275.1ZM281 125.8C281.5 125.8 281.8 125.5 281.9 125.3V125.7H282.4V123.7C282.4 122.7 281.7 122.6 281.3 122.6C280.8 122.6 280.3 122.8 280.1 123.3L280.6 123.5C280.7 123.3 281 123 281.4 123C281.8 123 282.1 123.2 282.1 123.6C282.1 123.8 281.9 123.8 281.3 123.9C280.7 124 280.1 124.1 280.1 124.8C279.9 125.4 280.4 125.8 281 125.8ZM281 125.3C280.6 125.3 280.3 125.1 280.3 124.8C280.3 124.4 280.6 124.3 281 124.3C281.2 124.3 281.7 124.2 281.8 124.1V124.5C281.9 125 281.6 125.3 281 125.3ZM283.7 121.6H283.2V125.7H283.7V121.6Z" fill="#9DA1A9"/>
<path d="M370.6 116.4C370.6 115.8 371.1 115.3 371.7 115.3H563.9C564.5 115.3 565 115.8 565 116.4V130C565 130.6 564.5 131.1 563.9 131.1H371.7C371.1 131.1 370.6 130.6 370.6 130V116.4V116.4Z" fill="white"/>
<path d="M375.3 104.7H374.7V108.6L372 104.7H371.4V109.6H372V105.7L374.7 109.6H375.3V104.7ZM377.5 109.8C378.1 109.8 378.5 109.5 378.6 109.2V109.7H379.2V107.3C379.2 106.1 378.3 106 377.8 106C377.2 106 376.6 106.2 376.3 106.9L376.8 107.1C376.9 106.8 377.2 106.5 377.8 106.5C378.3 106.5 378.6 106.8 378.6 107.3C378.6 107.6 378.3 107.6 377.6 107.6C376.9 107.7 376.2 107.8 376.2 108.7C376.2 109.4 376.8 109.8 377.5 109.8ZM377.6 109.3C377.1 109.3 376.8 109.1 376.8 108.7C376.8 108.3 377.2 108.1 377.6 108.1C377.8 108.1 378.5 108 378.6 107.9V108.4C378.6 108.8 378.3 109.3 377.6 109.3ZM381.9 106H381.1V105.1H380.5V106H379.9V106.5H380.5V108.8C380.5 109.4 381 109.8 381.5 109.8C381.7 109.8 381.8 109.8 381.9 109.7L381.8 109.2C381.8 109.2 381.7 109.2 381.5 109.2C381.2 109.2 381 109.1 381 108.6V106.4H381.8V106H381.9ZM385.1 108.2C385.1 108.9 384.6 109.2 384.1 109.2C383.6 109.2 383.3 108.9 383.3 108.3V106H382.7V108.4C382.7 109.3 383.2 109.8 383.9 109.8C384.5 109.8 384.8 109.5 385 109.1V109.7H385.6V106H385V108.2H385.1ZM386.7 109.7H387.3V107.4C387.3 106.9 387.7 106.5 388.2 106.5C388.4 106.5 388.5 106.5 388.5 106.5V105.9C388.4 105.9 388.3 105.9 388.2 105.9C387.8 105.9 387.4 106.2 387.2 106.5V106H386.6V109.7H386.7ZM390.6 109.8C391.4 109.8 391.9 109.4 392.1 108.9L391.5 108.7C391.4 109.1 391 109.3 390.6 109.3C389.9 109.3 389.5 108.9 389.4 108.1H392.1V107.9C392.1 106.5 391.3 106 390.5 106C389.5 106 388.8 106.8 388.8 107.9C388.8 109 389.6 109.8 390.6 109.8ZM389.5 107.5C389.5 106.9 389.9 106.4 390.6 106.4C391.2 106.4 391.6 106.9 391.6 107.5H389.5ZM392.9 109.7H395.8V109.2H393.7L395.7 106.5V106H393V106.5H395L392.9 109.2V109.7ZM397.8 109.8C398.4 109.8 398.8 109.5 398.9 109.2V109.7H399.5V107.3C399.5 106.1 398.6 106 398.1 106C397.5 106 396.9 106.2 396.6 106.9L397.1 107.1C397.2 106.8 397.5 106.5 398.1 106.5C398.6 106.5 398.9 106.8 398.9 107.3C398.9 107.6 398.6 107.6 397.9 107.6C397.2 107.7 396.5 107.8 396.5 108.7C396.6 109.4 397.1 109.8 397.8 109.8ZM397.9 109.3C397.4 109.3 397.1 109.1 397.1 108.7C397.1 108.3 397.5 108.1 397.9 108.1C398.1 108.1 398.8 108 398.9 107.9V108.4C398.9 108.8 398.6 109.3 397.9 109.3Z" fill="#222427"/>
<path d="M70.7 179.6C70.7 178.3 71.7 177.3 73 177.3H96.4C97.7 177.3 98.7 178.3 98.7 179.6V202.1C98.7 203.4 97.7 204.4 96.4 204.4H73C71.7 204.4 70.7 203.4 70.7 202.1V179.6Z" fill="#E7F1F3"/>
<path d="M70.7 149.6C70.7 148.3 71.7 147.3 73 147.3H96.4C97.7 147.3 98.7 148.3 98.7 149.6V172.1C98.7 173.4 97.7 174.4 96.4 174.4H73C71.7 174.4 70.7 173.4 70.7 172.1V149.6Z" fill="#29AB67"/>
<g opacity="0.5">
<path opacity="0.5" d="M88.6001 218.5L86.9001 217C86.7001 216.8 86.4001 216.7 86.1001 216.7H81.8001C81.1001 216.7 80.6001 217.2 80.6001 217.8V225.2C80.6001 225.8 81.1001 226.3 81.8001 226.3H87.8001C88.5001 226.3 89.0001 225.8 89.0001 225.2V219.3C89.0001 218.9 88.8001 218.7 88.6001 218.5Z" stroke="#29AB67" stroke-width="0.6503" stroke-linecap="round" stroke-linejoin="round"/>
<path opacity="0.5" d="M82.4001 221.5H87.2001" stroke="#29AB67" stroke-width="0.6503" stroke-linecap="round" stroke-linejoin="round"/>
<path opacity="0.5" d="M82.4001 223.101H87.2001" stroke="#29AB67" stroke-width="0.6503" stroke-linecap="round" stroke-linejoin="round"/>
<path opacity="0.5" d="M82.4001 224.601H85.4001" stroke="#29AB67" stroke-width="0.6503" stroke-linecap="round" stroke-linejoin="round"/>
<path opacity="0.5" d="M82.4001 219.4V218.6C82.4001 218.4 82.6001 218.2 82.8001 218.2H83.7001C83.9001 218.2 84.1001 218.4 84.1001 218.6V219.4C84.1001 219.6 83.9001 219.8 83.7001 219.8H82.8001C82.6001 219.8 82.4001 219.6 82.4001 219.4Z" stroke="#29AB67" stroke-width="0.6503" stroke-linecap="round" stroke-linejoin="round"/>
</g>
<path d="M80.6001 164.8C80.6001 163.5 81.8001 162.5 83.2001 162.5H86.3001C87.8001 162.5 88.9001 163.6 88.9001 164.8" stroke="white" stroke-width="0.5669" stroke-linecap="round" stroke-linejoin="round"/>
<path d="M86.6 157C87.6 157.9 87.6 159.3 86.6 160.2C85.6 161 84 161.1 83 160.2C82 159.3 82 157.9 83 157C84 156.1 85.6 156.1 86.6 157Z" stroke="white" stroke-width="0.5669" stroke-linecap="round" stroke-linejoin="round"/>
<g opacity="0.5">
<path opacity="0.5" d="M81.9999 192.2L81.0999 188.1H88.6999C89.0999 188.1 89.3999 188.4 89.2999 188.8L88.4999 191.8C88.3999 192.3 87.9999 192.6 87.4999 192.6L83.3999 193C82.6999 193.2 82.1999 192.8 81.9999 192.2Z" stroke="#29AB67" stroke-width="0.6503" stroke-linecap="round" stroke-linejoin="round"/>
<path opacity="0.5" d="M81.1 188.2L80.7 186.5H79.7" stroke="#29AB67" stroke-width="0.6503" stroke-linecap="round" stroke-linejoin="round"/>
<path opacity="0.5" d="M87.7999 195.1C87.6999 195.1 87.5999 195.2 87.5999 195.3C87.5999 195.4 87.6999 195.5 87.7999 195.5C87.8999 195.5 87.9999 195.4 87.9999 195.3C88.0999 195.2 87.9999 195.1 87.7999 195.1Z" stroke="#29AB67" stroke-width="0.6503" stroke-linecap="round" stroke-linejoin="round"/>
<path opacity="0.5" d="M82.7999 195.1C82.6999 195.1 82.5999 195.2 82.5999 195.3C82.5999 195.4 82.6999 195.5 82.7999 195.5C82.8999 195.5 82.9999 195.4 82.9999 195.3C82.9999 195.2 82.8999 195.1 82.7999 195.1Z" stroke="#29AB67" stroke-width="0.6503" stroke-linecap="round" stroke-linejoin="round"/>
</g>
<path d="M330.3 324.5H405.8C406.4 324.5 406.9 325 406.9 325.6V342.8C406.9 343.4 406.4 343.9 405.8 343.9H330.3C329.7 343.9 329.2 343.4 329.2 342.8V325.6C329.2 325 329.7 324.5 330.3 324.5Z" fill="#29AB67"/>
<path opacity="0.2" d="M303.9 329.1H311.8C312.2 329.1 312.5 329.4 312.5 329.8V337.7C312.5 338.1 312.2 338.4 311.8 338.4H303.9C303.5 338.4 303.2 338.1 303.2 337.7V329.8C303.2 329.5 303.5 329.1 303.9 329.1Z" stroke="#9DA1A9" stroke-width="0.8504"/>
<path d="M348.8 335.7H351V335.1H349.5V334.3H350.9V333.7H349.5V333H351V332.4H348.8V335.7ZM351.5 335.7H352.2V334.2C352.2 333.9 352.4 333.7 352.6 333.7C352.8 333.7 353 333.9 353 334.1V335.6H353.7V334.1C353.7 333.8 353.8 333.7 354.1 333.7C354.3 333.7 354.5 333.8 354.5 334.1V335.6H355.2V333.9C355.2 333.4 354.9 333.1 354.4 333.1C354 333.1 353.8 333.3 353.7 333.6C353.6 333.3 353.4 333.1 353 333.1C352.7 333.1 352.4 333.3 352.3 333.6V333.2H351.6V335.7H351.5ZM355.7 335.7H356.4V333.2H355.7V335.7ZM356 332.9C356.2 332.9 356.4 332.7 356.4 332.6C356.4 332.4 356.2 332.3 356 332.3C355.8 332.3 355.6 332.5 355.6 332.6C355.6 332.8 355.8 332.9 356 332.9ZM358.2 333.3H357.7V332.7H357V333.3H356.7V333.8H357V335.1C357 335.6 357.3 335.8 357.8 335.8C358 335.8 358.1 335.8 358.2 335.7L358.1 335.2C358.1 335.2 358 335.2 357.9 335.2C357.8 335.2 357.7 335.1 357.7 335V333.8H358.2V333.3ZM358.7 335.7H359.4V333.2H358.7V335.7ZM359 332.9C359.2 332.9 359.4 332.7 359.4 332.6C359.4 332.4 359.2 332.3 359 332.3C358.8 332.3 358.6 332.5 358.6 332.6C358.6 332.8 358.8 332.9 359 332.9ZM359.9 335.7H360.6V334.3C360.6 334 360.8 333.8 361.1 333.8C361.2 333.8 361.3 333.8 361.4 333.8V333.2C361.3 333.2 361.3 333.2 361.2 333.2C360.9 333.2 360.7 333.4 360.6 333.7V333.3H359.9V335.7ZM365.6 332.4H364.9V334.5L363.5 332.4H362.9V335.7H363.6V333.6L365 335.7H365.6V332.4ZM367.3 335.8C368.1 335.8 368.5 335.3 368.5 334.5C368.5 333.7 368 333.2 367.3 333.2C366.5 333.2 366.1 333.7 366.1 334.5C366 335.3 366.5 335.8 367.3 335.8ZM367.3 335.2C367 335.2 366.8 334.9 366.8 334.5C366.8 334.1 367 333.7 367.3 333.7C367.6 333.7 367.8 334 367.8 334.5C367.8 334.9 367.6 335.2 367.3 335.2ZM370.2 333.3H369.7V332.7H369V333.3H368.7V333.8H369V335.1C369 335.6 369.3 335.8 369.8 335.8C370 335.8 370.1 335.8 370.2 335.7L370.1 335.2C370.1 335.2 370 335.2 369.9 335.2C369.8 335.2 369.7 335.1 369.7 335V333.8H370.2V333.3ZM371.4 335.8C371.8 335.8 372 335.6 372.1 335.4V335.7H372.8V334C372.8 333.4 372.3 333.2 371.7 333.2C371.1 333.2 370.7 333.5 370.6 333.9L371.2 334C371.2 333.8 371.4 333.7 371.6 333.7C371.8 333.7 372 333.8 372 334C372 334.2 371.8 334.2 371.4 334.2C370.9 334.2 370.5 334.4 370.5 335C370.6 335.5 370.9 335.8 371.4 335.8ZM371.6 335.3C371.4 335.3 371.2 335.2 371.2 335C371.2 334.8 371.4 334.7 371.6 334.7C371.7 334.7 372 334.6 372.1 334.6V334.9C372.1 335.1 371.9 335.3 371.6 335.3ZM374.4 335.7H375.1V334.3H376.4V333.7H375.1V333H376.6V332.4H374.4V335.7ZM377 335.7H377.7V333.2H377V335.7ZM377.4 332.9C377.6 332.9 377.8 332.7 377.8 332.6C377.8 332.4 377.6 332.3 377.4 332.3C377.2 332.3 377 332.5 377 332.6C377 332.8 377.2 332.9 377.4 332.9ZM380.3 334C380.2 333.5 379.9 333.3 379.2 333.3C378.6 333.3 378.2 333.6 378.2 334.1C378.2 334.5 378.4 334.7 378.9 334.8L379.3 334.9C379.5 334.9 379.6 335 379.6 335.1C379.6 335.2 379.4 335.4 379.2 335.4C379 335.4 378.8 335.3 378.7 335.1H378C378.1 335.6 378.5 335.9 379.1 335.9C379.7 335.9 380.2 335.6 380.2 335.1C380.2 334.7 380 334.5 379.5 334.4L379.1 334.3C378.9 334.2 378.8 334.2 378.8 334.1C378.8 334 379 333.9 379.2 333.9C379.4 333.9 379.6 334 379.6 334.2L380.3 334ZM381.9 335.8C382.6 335.8 383 335.4 383 334.8H382.4C382.4 335.1 382.2 335.2 382 335.2C381.7 335.2 381.5 334.9 381.5 334.5C381.5 334 381.7 333.8 382 333.8C382.3 333.8 382.4 334 382.4 334.2H383C383 333.6 382.5 333.3 381.9 333.3C381.1 333.3 380.7 333.8 380.7 334.6C380.7 335.3 381.2 335.8 381.9 335.8ZM384.2 335.8C384.6 335.8 384.8 335.6 384.9 335.4V335.7H385.6V334C385.6 333.4 385.1 333.2 384.6 333.2C384 333.2 383.6 333.5 383.5 333.9L384.1 334C384.1 333.8 384.3 333.7 384.5 333.7C384.7 333.7 384.9 333.8 384.9 334C384.9 334.2 384.7 334.2 384.3 334.2C383.8 334.2 383.4 334.4 383.4 335C383.4 335.5 383.7 335.8 384.2 335.8ZM384.4 335.3C384.2 335.3 384 335.2 384 335C384 334.8 384.2 334.7 384.4 334.7C384.5 334.7 384.8 334.6 384.9 334.6V334.9C384.9 335.1 384.7 335.3 384.4 335.3ZM386.8 332.4H386.1V335.7H386.8V332.4Z" fill="white"/>
<path opacity="0.5" d="M250.6 332.9H294.8C295.4 332.9 295.9 333.4 295.9 334V335.1C295.9 335.7 295.4 336.2 294.8 336.2H250.6C250 336.2 249.5 335.7 249.5 335.1V334C249.5 333.4 250 332.9 250.6 332.9Z" fill="#C4C4C4"/>
<path d="M128.7 162.8H132.6C132.9 162.8 133.2 163.1 133.2 163.4V166.5C133.2 166.8 132.9 167.1 132.6 167.1H128.7C128.4 167.1 128.1 166.8 128.1 166.5V163.4C128.2 163 128.4 162.8 128.7 162.8Z" fill="#29AB67"/>
<path d="M129.3 165.1H132.1" stroke="white" stroke-width="0.5669" stroke-linecap="round"/>
<path opacity="0.2" d="M137.6 171.9L566.5 170.1" stroke="#9DA1A9" stroke-width="0.5669"/>
<path d="M142.7 185.8C144.081 185.8 145.2 184.681 145.2 183.3C145.2 181.919 144.081 180.8 142.7 180.8C141.319 180.8 140.2 181.919 140.2 183.3C140.2 184.681 141.319 185.8 142.7 185.8Z" fill="#29AB67"/>
<path opacity="0.3" d="M189.8 185.7C191.125 185.7 192.2 184.626 192.2 183.3C192.2 181.975 191.125 180.9 189.8 180.9C188.474 180.9 187.4 181.975 187.4 183.3C187.4 184.626 188.474 185.7 189.8 185.7Z" fill="white" stroke="#9DA1A9" stroke-width="0.2835"/>
<path d="M141.9 183L142.4 183.4L143.6 182.6" stroke="white" stroke-width="0.2835" stroke-linecap="round"/>
<path opacity="0.5" d="M150.4 182.5H169C169.5 182.5 169.8 182.9 169.8 183.3C169.8 183.8 169.4 184.1 169 184.1H150.4C149.9 184.1 149.6 183.7 149.6 183.3C149.6 182.9 150 182.5 150.4 182.5Z" fill="#C4C4C4"/>
<path opacity="0.5" d="M139.6 206.1H363C363.4 206.1 363.7 206.4 363.7 206.8V216.4C363.7 216.8 363.4 217.1 363 217.1H139.6C139.2 217.1 138.9 216.8 138.9 216.4V206.8C138.9 206.4 139.2 206.1 139.6 206.1Z" stroke="#29AB67" stroke-width="0.8504"/>
<path opacity="0.5" d="M139.6 235.2H206.6C207 235.2 207.3 235.5 207.3 235.9V245.5C207.3 245.9 207 246.2 206.6 246.2H139.6C139.2 246.2 138.9 245.9 138.9 245.5V235.9C138.9 235.5 139.2 235.2 139.6 235.2Z" stroke="#29AB67" stroke-width="0.8504"/>
<path opacity="0.5" d="M139.6 264.3H244.7C245.1 264.3 245.4 264.6 245.4 265V274.6C245.4 275 245.1 275.3 244.7 275.3H139.6C139.2 275.3 138.9 275 138.9 274.6V265C138.9 264.7 139.2 264.3 139.6 264.3Z" stroke="#29AB67" stroke-width="0.8504"/>
<path opacity="0.5" d="M138.1 290.3H327.7C328.1 290.3 328.4 290.6 328.4 291V300.6C328.4 301 328.1 301.3 327.7 301.3H138.1C137.7 301.3 137.4 301 137.4 300.6V291C137.4 290.6 137.7 290.3 138.1 290.3Z" stroke="#29AB67" stroke-width="0.8504"/>
<path opacity="0.5" d="M227.9 235.2H364.2C364.6 235.2 364.9 235.5 364.9 235.9V245.5C364.9 245.9 364.6 246.2 364.2 246.2H227.9C227.5 246.2 227.2 245.9 227.2 245.5V235.9C227.2 235.5 227.5 235.2 227.9 235.2Z" stroke="#29AB67" stroke-width="0.8504"/>
<path opacity="0.5" d="M267.3 264.3H364.8C365.2 264.3 365.5 264.6 365.5 265V274.6C365.5 275 365.2 275.3 364.8 275.3H267.3C266.9 275.3 266.6 275 266.6 274.6V265C266.6 264.7 266.9 264.3 267.3 264.3Z" stroke="#29AB67" stroke-width="0.8504"/>
<path opacity="0.5" d="M344.6 290.2H569.3C569.7 290.2 570 290.5 570 290.9V300.6C570 301 569.7 301.3 569.3 301.3H344.6C344.2 301.3 343.9 301 343.9 300.6V290.9C343.9 290.5 344.2 290.2 344.6 290.2Z" stroke="#29AB67" stroke-width="0.8504"/>
<path opacity="0.5" d="M396.1 205.9H569C569.4 205.9 569.7 206.2 569.7 206.6V216.2C569.7 216.6 569.4 216.9 569 216.9H396.1C395.7 216.9 395.4 216.6 395.4 216.2V206.6C395.4 206.2 395.7 205.9 396.1 205.9Z" stroke="#9DA1A9" stroke-width="0.8504"/>
<path opacity="0.5" d="M395.9 235.2H439.3C439.7 235.2 440 235.5 440 235.9V245.5C440 245.9 439.7 246.2 439.3 246.2H395.9C395.5 246.2 395.2 245.9 395.2 245.5V235.9C395.1 235.5 395.5 235.2 395.9 235.2Z" stroke="#9DA1A9" stroke-width="0.8504"/>
<path opacity="0.5" d="M396.1 264.5H569C569.4 264.5 569.7 264.8 569.7 265.2V274.8C569.7 275.2 569.4 275.5 569 275.5H396.1C395.7 275.5 395.4 275.2 395.4 274.8V265.2C395.4 264.8 395.7 264.5 396.1 264.5Z" stroke="#9DA1A9" stroke-width="0.8504"/>
<path opacity="0.5" d="M444.9 235.2H569.6C570 235.2 570.3 235.5 570.3 235.9V245.5C570.3 245.9 570 246.2 569.6 246.2H444.9C444.5 246.2 444.2 245.9 444.2 245.5V235.9C444.2 235.5 444.5 235.2 444.9 235.2Z" stroke="#9DA1A9" stroke-width="0.8504"/>
<path opacity="0.5" d="M197.6 182.5H216.2C216.7 182.5 217 182.9 217 183.3C217 183.8 216.6 184.1 216.2 184.1H197.6C197.1 184.1 196.8 183.7 196.8 183.3C196.7 182.9 197.1 182.5 197.6 182.5Z" fill="#C4C4C4"/>
<path d="M624.5 21.5H30.5V60.4H624.5V21.5Z" fill="#FDFDFE"/>
<path d="M132.2 34.1998L126.4 33.4998C126.3 33.4998 126.2 33.4998 126.1 33.4998C125.4 33.3998 125 33.3998 124.9 33.4998C122.1 33.6998 119.9 36.4998 119.9 38.2998V44.5998C119.9 45.9998 121.4 48.8998 124.3 48.6998C124.5 48.6998 124.8 48.6998 124.9 48.5998C125.2 48.4998 125.4 48.4998 125.8 48.3998L132.2 47.1998C134.3 46.7998 135.3 44.2998 135.3 42.5998V37.2998C135.4 35.4998 134 34.3998 132.2 34.1998ZM134.9 42.3998C134.9 43.9998 133.9 46.1998 131.9 46.5998L125.9 47.6998C123.4 48.1998 121.3 45.7998 121.3 44.0998V38.2998C121.3 36.3998 123.7 33.6998 126.5 33.8998L131.9 34.5998C133.7 34.7998 134.8 35.7998 134.8 37.3998V42.3998H134.9V42.3998Z" fill="#23BE7D"/>
<path d="M162.2 44.9994C161.1 44.9994 160.2 44.5994 159.4 43.8994C158.6 43.0994 158.2 42.1994 158.2 41.0994V35.3994C158.2 35.0994 158.3 34.8994 158.5 34.6994C158.7 34.4994 158.9 34.3994 159.2 34.3994C159.5 34.3994 159.7 34.4994 159.9 34.6994C160.1 34.8994 160.2 35.0994 160.2 35.3994V37.5994L160.3 37.4994C160.8 37.1994 161.4 37.0994 162.2 37.0994C163.3 37.0994 164.2 37.4994 165 38.2994C165.8 39.0994 166.2 39.9994 166.2 41.0994C166.2 42.1994 165.8 43.0994 165 43.8994C164.3 44.5994 163.3 44.9994 162.2 44.9994ZM162.2 39.0994C161.6 39.0994 161.2 39.2994 160.8 39.6994C160.4 40.0994 160.2 40.5994 160.2 41.0994C160.2 41.6994 160.4 42.0994 160.8 42.4994C161.2 42.8994 161.7 43.0994 162.2 43.0994C162.8 43.0994 163.2 42.8994 163.6 42.4994C164 42.0994 164.2 41.5994 164.2 41.0994C164.2 40.4994 164 40.0994 163.6 39.6994C163.3 39.2994 162.8 39.0994 162.2 39.0994Z" fill="#505050"/>
<path d="M177.3 44.9996C177 44.9996 176.8 44.8996 176.6 44.6996C176.4 44.4996 176.3 44.2996 176.3 43.9996V40.3996C176.3 39.9996 176.2 39.6996 175.9 39.3996C175.6 39.0996 175.3 38.9996 174.9 38.9996C174.5 38.9996 174.2 39.0996 173.9 39.3996C173.6 39.6996 173.5 39.9996 173.5 40.3996V43.9996C173.5 44.2996 173.4 44.4996 173.2 44.6996C173 44.8996 172.8 44.9996 172.5 44.9996C172.2 44.9996 172 44.8996 171.8 44.6996C171.6 44.4996 171.5 44.2996 171.5 43.9996V40.3996C171.5 39.9996 171.4 39.6996 171.1 39.3996C170.8 39.0996 170.5 38.9996 170.1 38.9996C169.7 38.9996 169.4 39.0996 169.1 39.3996C168.8 39.6996 168.7 39.9996 168.7 40.3996V43.9996C168.7 44.2996 168.6 44.4996 168.4 44.6996C168.2 44.8996 168 44.9996 167.7 44.9996C167.4 44.9996 167.2 44.8996 167 44.6996C166.8 44.4996 166.7 44.2996 166.7 43.9996V40.3996C166.7 39.4996 167 38.6996 167.7 38.0996C168.3 37.4996 169.1 37.0996 170 37.0996C171 37.0996 171.8 37.3996 172.3 37.9996V38.0996V37.9996C172.8 37.3996 173.6 37.0996 174.6 37.0996C175.5 37.0996 176.3 37.3996 176.9 38.0996C177.5 38.6996 177.9 39.4996 177.9 40.3996V43.9996C177.9 44.2996 177.8 44.4996 177.6 44.6996C177.8 44.8996 177.6 44.9996 177.3 44.9996Z" fill="#505050"/>
<path d="M146 44.9996C145 44.9996 144.2 44.6996 143.7 44.0996V43.9996V44.0996C143.2 44.6996 142.4 44.9996 141.4 44.9996C140.5 44.9996 139.7 44.6996 139.1 43.9996C138.5 43.3996 138.1 42.5996 138.1 41.6996V38.0996C138.1 37.7996 138.2 37.5996 138.4 37.3996C138.6 37.1996 138.8 37.0996 139.1 37.0996C139.4 37.0996 139.6 37.1996 139.8 37.3996C140 37.5996 140.1 37.7996 140.1 38.0996V41.6996C140.1 42.0996 140.2 42.3996 140.5 42.6996C140.8 42.9996 141.1 43.0996 141.5 43.0996C141.9 43.0996 142.2 42.9996 142.5 42.6996C142.8 42.3996 142.9 42.0996 142.9 41.6996V38.0996C142.9 37.7996 143 37.5996 143.2 37.3996C143.4 37.1996 143.6 37.0996 143.9 37.0996C144.2 37.0996 144.4 37.1996 144.6 37.3996C144.8 37.5996 144.9 37.7996 144.9 38.0996V41.6996C144.9 42.0996 145 42.3996 145.3 42.6996C145.6 42.9996 145.9 43.0996 146.3 43.0996C146.7 43.0996 147 42.9996 147.3 42.6996C147.6 42.3996 147.7 42.0996 147.7 41.6996V38.0996C147.7 37.7996 147.8 37.5996 148 37.3996C148.2 37.1996 148.4 37.0996 148.7 37.0996C149 37.0996 149.2 37.1996 149.4 37.3996C149.6 37.5996 149.7 37.7996 149.7 38.0996V41.6996C149.7 42.5996 149.4 43.3996 148.7 43.9996C147.6 44.6996 146.9 44.9996 146 44.9996Z" fill="#505050"/>
<path d="M185.9 44.9994C185.6 44.9994 185.4 44.8994 185.2 44.6994C185.1 44.5994 185 44.4994 185 44.3994V44.2994H184.9C184.4 44.6994 183.7 44.8994 182.9 44.8994C181.8 44.8994 180.9 44.4994 180.1 43.6994C179.3 42.8994 178.9 41.9994 178.9 40.8994C178.9 39.7994 179.3 38.8994 180.1 38.0994C180.9 37.2994 181.8 36.8994 182.9 36.8994C184 36.8994 184.9 37.2994 185.7 38.0994C186.5 38.8994 186.9 39.7994 186.9 40.8994V43.8994C186.9 44.1994 186.8 44.3994 186.6 44.5994C186.4 44.8994 186.2 44.9994 185.9 44.9994ZM182.9 38.9994C182.3 38.9994 181.9 39.1994 181.5 39.5994C181.1 39.9994 180.9 40.4994 180.9 40.9994C180.9 41.5994 181.1 41.9994 181.5 42.3994C181.9 42.7994 182.4 42.9994 182.9 42.9994C183.5 42.9994 183.9 42.7994 184.3 42.3994C184.7 41.9994 184.9 41.4994 184.9 40.9994C184.9 40.3994 184.7 39.9994 184.3 39.5994C184 39.1994 183.5 38.9994 182.9 38.9994Z" fill="#505050"/>
<path d="M193.3 44.9996C193 44.9996 192.8 44.8996 192.6 44.6996C192.4 44.4996 192.3 44.2996 192.3 43.9996V40.3996C192.3 39.9996 192.2 39.6996 191.9 39.3996C191.6 39.0996 191.3 38.9996 190.9 38.9996C190.5 38.9996 190.2 39.0996 189.9 39.3996C189.6 39.6996 189.5 39.9996 189.5 40.3996V43.9996C189.5 44.2996 189.4 44.4996 189.2 44.6996C189 44.8996 188.8 44.9996 188.5 44.9996C188.2 44.9996 188 44.8996 187.8 44.6996C187.6 44.4996 187.5 44.2996 187.5 43.9996V40.3996C187.5 39.4996 187.8 38.6996 188.5 38.0996C189.1 37.4996 189.9 37.0996 190.8 37.0996C191.7 37.0996 192.5 37.3996 193.1 38.0996C193.7 38.6996 194.1 39.4996 194.1 40.3996V43.9996C194.1 44.2996 194 44.4996 193.8 44.6996C193.8 44.8996 193.6 44.9996 193.3 44.9996Z" fill="#505050"/>
<path d="M196.3 45C196 45 195.8 44.9 195.6 44.7C195.4 44.5 195.3 44.3 195.3 44V38C195.3 37.7 195.4 37.5 195.6 37.3C195.8 37.1 196 37 196.3 37C196.6 37 196.8 37.1 197 37.3C197.2 37.5 197.3 37.7 197.3 38V44C197.3 44.3 197.2 44.5 197 44.7C196.8 44.9 196.5 45 196.3 45ZM196.3 36.6C196 36.6 195.8 36.5 195.5 36.3C195.3 36.1 195.2 35.8 195.2 35.5C195.2 35.2 195.3 35 195.5 34.8C195.7 34.6 196 34.5 196.3 34.5C196.6 34.5 196.8 34.6 197 34.8C197.2 35 197.3 35.3 197.3 35.5C197.3 35.8 197.2 36.1 197 36.3C196.8 36.5 196.6 36.6 196.3 36.6Z" fill="#505050"/>
<path d="M204.9 44.9994C204.6 44.9994 204.4 44.8994 204.2 44.6994C204.1 44.5994 204 44.4994 204 44.3994V44.2994H203.9C203.4 44.6994 202.7 44.8994 201.9 44.8994C200.8 44.8994 199.9 44.4994 199.1 43.6994C198.3 42.8994 197.9 41.9994 197.9 40.8994C197.9 39.7994 198.3 38.8994 199.1 38.0994C199.9 37.2994 200.8 36.8994 201.9 36.8994C203 36.8994 203.9 37.2994 204.7 38.0994C205.5 38.8994 205.9 39.7994 205.9 40.8994V43.8994C205.9 44.1994 205.8 44.3994 205.6 44.5994C205.4 44.8994 205.2 44.9994 204.9 44.9994ZM201.9 38.9994C201.3 38.9994 200.9 39.1994 200.5 39.5994C200.1 39.9994 199.9 40.4994 199.9 40.9994C199.9 41.5994 200.1 41.9994 200.5 42.3994C200.9 42.7994 201.4 42.9994 201.9 42.9994C202.5 42.9994 202.9 42.7994 203.3 42.3994C203.7 41.9994 203.9 41.4994 203.9 40.9994C203.9 40.3994 203.7 39.9994 203.3 39.5994C202.9 39.1994 202.5 38.9994 201.9 38.9994Z" fill="#505050"/>
<path d="M133.6 41.5998V38.2998C133.6 36.7998 131.7 36.5998 131.7 38.2998V41.4998C131.7 42.3998 130.3 42.4998 130.3 41.5998V37.7998C130.3 36.3998 128 35.8998 128 37.8998V41.6998C128 42.9998 126.2 43.3998 126.2 41.8998V37.6998C126.2 35.6998 123.2 35.4998 123.2 37.9998V42.4998V42.8998C123.2 45.3998 126.3 46.9998 129 44.6998C130.1 45.5998 133.6 45.1998 133.6 41.5998Z" fill="#23BE7D"/>
<path d="M153.9 45C152.8 45 151.9 44.6 151.1 43.8C150.3 43 149.9 42.1 149.9 41C149.9 39.9 150.3 39 151.1 38.2C151.9 37.4 152.8 37 153.9 37C154.7 37 155.4 37.2 156 37.6C156.6 38 157.1 38.6 157.4 39.3C157.5 39.4 157.5 39.6 157.5 39.7C157.5 39.8 157.5 39.9 157.4 40C157.3 40.2 157.1 40.4 156.9 40.5C156.3 40.8 155.5 41.1 154.5 41.6C153.6 42 152.9 42.3 152.6 42.5H152.5L152.6 42.6C152.9 42.8 153.3 43 153.8 43C154.2 43 154.6 42.9 155 42.6C155.3 42.4 155.5 42.2 155.6 41.9C155.8 41.4 156.2 41.1 156.7 41.1C157 41.1 157.2 41.2 157.4 41.4C157.6 41.6 157.6 42 157.5 42.3C157.5 42.4 157.5 42.4 157.4 42.5C157.1 43.2 156.7 43.7 156.1 44.1C155.5 44.7 154.7 45 153.9 45ZM153.9 39.1C153.3 39.1 152.9 39.3 152.5 39.7C152.2 40 152 40.4 151.9 40.8V40.9L155.2 39.4L155.1 39.3C154.8 39.2 154.4 39.1 153.9 39.1Z" fill="#505050"/>
<path d="M530.7 46.6004H507.2C504.1 46.6004 501.6 44.1004 501.6 41.0004C501.6 37.9004 504.1 35.4004 507.2 35.4004H530.7C533.8 35.4004 536.3 37.9004 536.3 41.0004C536.2 44.1004 533.7 46.6004 530.7 46.6004Z" fill="#23BE7D"/>
<path d="M279.2 44.1004H233.3C231.6 44.1004 230.2 42.7004 230.2 41.0004C230.2 39.3004 231.6 37.9004 233.3 37.9004H279.2C280.9 37.9004 282.3 39.3004 282.3 41.0004C282.3 42.7004 280.9 44.1004 279.2 44.1004Z" fill="#F5F5F8"/>
<path d="M357.6 44.1004H303.2C301.5 44.1004 300.1 42.7004 300.1 41.0004C300.1 39.3004 301.5 37.9004 303.2 37.9004H357.6C359.3 37.9004 360.7 39.3004 360.7 41.0004C360.7 42.7004 359.3 44.1004 357.6 44.1004Z" fill="#F5F5F8"/>
<path d="M406.9 44.1004H382.4C380.7 44.1004 379.3 42.7004 379.3 41.0004C379.3 39.3004 380.7 37.9004 382.4 37.9004H406.9C408.6 37.9004 410 39.3004 410 41.0004C410 42.7004 408.6 44.1004 406.9 44.1004Z" fill="#F5F5F8"/>
<path d="M468.9 44.1004H430.7C429 44.1004 427.6 42.7004 427.6 41.0004C427.6 39.3004 429 37.9004 430.7 37.9004H468.9C470.6 37.9004 472 39.3004 472 41.0004C472 42.7004 470.6 44.1004 468.9 44.1004Z" fill="#F5F5F8"/>
<path d="M30.5 5.9998C30.5 3.0998 32.8 0.799805 35.7 0.799805H619.3C622.2 0.799805 624.5 3.0998 624.5 5.9998V21.4998H30.5V5.9998Z" fill="#23BE7D"/>
<path d="M43.9999 14.2996C45.712 14.2996 47.0999 12.9117 47.0999 11.1996C47.0999 9.48753 45.712 8.09961 43.9999 8.09961C42.2878 8.09961 40.8999 9.48753 40.8999 11.1996C40.8999 12.9117 42.2878 14.2996 43.9999 14.2996Z" fill="white"/>
<path opacity="0.6" d="M55.4999 14.2996C57.212 14.2996 58.5999 12.9117 58.5999 11.1996C58.5999 9.48753 57.212 8.09961 55.4999 8.09961C53.7878 8.09961 52.3999 9.48753 52.3999 11.1996C52.3999 12.9117 53.7878 14.2996 55.4999 14.2996Z" fill="white"/>
<path opacity="0.35" d="M66.9001 14.2996C68.6121 14.2996 70 12.9117 70 11.1996C70 9.48753 68.6121 8.09961 66.9001 8.09961C65.188 8.09961 63.8 9.48753 63.8 11.1996C63.8 12.9117 65.188 14.2996 66.9001 14.2996Z" fill="white"/>
<defs>
<filter id="filter0_f" x="0.963148" y="34.302" width="653.074" height="380.929" filterUnits="userSpaceOnUse" color-interpolation-filters="sRGB">
<feFlood flood-opacity="0" result="BackgroundImageFix"/>
<feBlend mode="normal" in="SourceGraphic" in2="BackgroundImageFix" result="shape"/>
<feGaussianBlur stdDeviation="14.5184" result="effect1_foregroundBlur"/>
</filter>
<filter id="filter1_d" x="26.1208" y="19.5938" width="601.973" height="376.816" filterUnits="userSpaceOnUse" color-interpolation-filters="sRGB">
<feFlood flood-opacity="0" result="BackgroundImageFix"/>
<feColorMatrix in="SourceAlpha" type="matrix" values="0 0 0 0 0 0 0 0 0 0 0 0 0 0 0 0 0 0 127 0" result="hardAlpha"/>
<feOffset dy="4"/>
<feGaussianBlur stdDeviation="2"/>
<feComposite in2="hardAlpha" operator="out"/>
<feColorMatrix type="matrix" values="0 0 0 0 0 0 0 0 0 0 0 0 0 0 0 0 0 0 0.25 0"/>
<feBlend mode="normal" in2="BackgroundImageFix" result="effect1_dropShadow"/>
<feBlend mode="normal" in="SourceGraphic" in2="effect1_dropShadow" result="shape"/>
</filter>
<linearGradient id="paint0_linear" x1="327.5" y1="63.3389" x2="327.5" y2="386.194" gradientUnits="userSpaceOnUse">
<stop stop-color="#222427" stop-opacity="0"/>
<stop offset="1" stop-color="#222427"/>
</linearGradient>
</defs>
</svg>
