<svg xmlns="http://www.w3.org/2000/svg" width="208" height="85" viewBox="0 0 208 85" fill="none"><path fill-rule="evenodd" clip-rule="evenodd" d="M70.6141 65.0117C73.7906 68.4619 74.4933 68.8611 79.0473 70.2868C82.0551 71.2563 84.2759 74.1077 84.2759 77.4723C84.2759 81.6354 80.9307 85 76.8546 85C74.0436 85 71.5979 83.4032 70.333 81.0651C68.4495 77.5579 70.7827 74.5069 69.2648 70.743C67.2127 65.6961 63.7269 60.421 60.7753 55.8873C58.414 52.266 55.9122 48.7018 53.5228 45.3086C51.6956 42.7139 49.531 40.4898 46.8605 40.3757C43.4029 40.2331 39.8329 42.6283 38.9895 45.993C38.3149 48.7588 39.3831 51.6387 41.2103 53.7487C42.0255 54.6897 42.5315 55.9158 42.5315 57.256C42.5315 60.1644 40.1983 62.531 37.331 62.531C34.4637 62.531 32.1305 60.1644 32.1305 57.256C32.1305 55.7162 32.7771 54.3475 33.8172 53.3781C35.6162 51.4106 36.6563 48.6733 36.1504 46.1355C35.4476 42.7139 31.6526 40.889 28.5042 41.2882C25.6932 41.6303 23.1913 43.2841 21.0549 45.4797C18.8623 47.7323 16.8664 50.7263 15.3766 53.6632C13.3807 57.5981 15.9388 61.0768 14.477 64.6411C13.3245 67.4925 10.5977 69.7736 7.42122 69.7736C3.31706 69.7736 0 66.3804 0 62.2459C0 58.5961 2.58618 55.5166 6.01569 54.8608C10.9632 53.8913 12.9028 52.5797 15.8825 48.7018C19.8462 43.5693 22.7978 38.4653 19.0028 31.8215C17.2319 28.7135 16.1918 25.0923 16.1918 21.2144C16.1918 9.52365 25.5807 0 37.1342 0C48.6596 0 58.0486 9.52365 58.0486 21.2144C58.0486 24.9497 57.0928 28.4569 55.4062 31.5079C52.0048 37.6954 55.7154 42.4572 58.6951 47.6182C61.1126 51.8098 63.7551 56.2295 66.5942 60.1359C67.9154 61.8752 69.2366 63.529 70.6141 65.0117ZM37.1623 18.2204C38.7647 18.2204 40.0859 19.5606 40.0859 21.1858C40.0859 22.8111 38.7647 24.1513 37.1623 24.1513C35.56 24.1513 34.2388 22.8111 34.2388 21.1858C34.2388 19.5606 35.56 18.2204 37.1623 18.2204ZM37.1623 13.6582C41.2665 13.6582 44.5836 17.0513 44.5836 21.1858C44.5836 25.3489 41.2384 28.7135 37.1623 28.7135C33.0582 28.7135 29.7411 25.3204 29.7411 21.1858C29.7411 17.0513 33.0582 13.6582 37.1623 13.6582ZM37.1623 9.09594C43.7402 9.09594 49.0813 14.5421 49.0813 21.1858C49.0813 27.8581 43.7121 33.2757 37.1623 33.2757C30.5844 33.2757 25.2434 27.8296 25.2434 21.1858C25.2434 14.5421 30.5844 9.09594 37.1623 9.09594ZM37.1623 4.53372C46.214 4.53372 53.579 12.0329 53.579 21.1858C53.579 30.3673 46.1859 37.838 37.1623 37.838C28.1107 37.838 20.7457 30.3388 20.7457 21.1858C20.7457 12.0329 28.1107 4.53372 37.1623 4.53372ZM76.8546 74.5354C78.4569 74.5354 79.7781 75.8755 79.7781 77.5008C79.7781 79.1261 78.4569 80.4663 76.8546 80.4663C75.2523 80.4663 73.9311 79.1261 73.9311 77.5008C73.9311 75.847 75.2523 74.5354 76.8546 74.5354ZM37.3591 55.1744C38.4835 55.1744 39.4112 56.1154 39.4112 57.256C39.4112 58.3965 38.4835 59.3375 37.3591 59.3375C36.2347 59.3375 35.307 58.3965 35.307 57.256C35.307 56.1154 36.2347 55.1744 37.3591 55.1744ZM7.44933 59.2519C9.05164 59.2519 10.3728 60.5921 10.3728 62.2174C10.3728 63.8427 9.05164 65.1828 7.44933 65.1828C5.84702 65.1828 4.52582 63.8427 4.52582 62.2174C4.49771 60.5921 5.81891 59.2519 7.44933 59.2519Z" fill="#173354"></path><path fill-rule="evenodd" clip-rule="evenodd" d="M69.9312 25.8364C70.263 25.8076 70.5396 25.7789 70.7332 25.7789C70.9268 25.7789 71.0651 25.7789 71.1481 25.7789C72.2544 25.7789 73.167 26.0088 73.8861 26.4686C74.6052 26.9284 75.0201 27.6468 75.2137 28.6238C76.2093 27.733 77.5092 26.9571 79.1133 26.2961C80.7174 25.6352 82.6258 25.3191 84.8107 25.3191C85.5851 25.3191 86.3871 25.3766 87.1892 25.5203C87.9913 25.6639 88.7933 25.8651 89.5677 26.1525C90.3421 26.4398 91.0335 26.8134 91.6973 27.2445C92.3334 27.7043 92.8589 28.2215 93.2461 28.825C94.2418 27.8767 95.5693 27.072 97.2564 26.3824C98.9435 25.6927 100.879 25.3478 103.064 25.3478C105.885 25.3478 108.07 25.9226 109.591 27.0433C111.113 28.164 112.081 29.5722 112.523 31.2676C112.744 32.0148 112.855 32.8482 112.91 33.7678C112.966 34.6873 112.966 35.5782 112.966 36.4403V52.4468H107.49V36.584C107.49 35.8655 107.49 35.1759 107.462 34.5149C107.434 33.854 107.324 33.2505 107.102 32.6757C106.798 31.6987 106.19 30.9515 105.305 30.4343C104.392 29.917 102.981 29.6584 101.073 29.6584C99.6626 29.6584 98.335 29.917 97.1181 30.4343C95.9012 30.9515 94.9885 31.555 94.3801 32.1872C94.463 32.8194 94.5183 33.4804 94.5737 34.1988C94.629 34.8885 94.629 35.6069 94.629 36.3541V52.418H89.1528V36.584C89.1528 35.8081 89.0975 35.0609 89.0146 34.3712C88.9316 33.6815 88.7657 33.0493 88.5721 32.4746C87.853 30.6067 85.917 29.6584 82.7917 29.6584C81.8514 29.6584 80.9387 29.7733 80.0537 30.0032C79.1686 30.2331 78.3942 30.5205 77.7028 30.8941C77.0114 31.2676 76.4582 31.6987 76.0434 32.1585C75.6285 32.6183 75.4073 33.0781 75.4073 33.5379V52.418H69.9312V25.8364V25.8364Z" fill="#018FD1"></path><path fill-rule="evenodd" clip-rule="evenodd" d="M121.931 18.1406C122.245 18.1128 122.501 18.085 122.701 18.085C122.9 18.085 123.043 18.085 123.128 18.085C124.439 18.085 125.522 18.3632 126.349 18.8918C127.175 19.4483 127.574 20.3943 127.574 21.7855V25.9868H137.435V29.9098H127.574V43.9884C127.574 46.9655 128.999 48.4679 131.878 48.4679C132.59 48.4679 133.246 48.3566 133.873 48.1619C134.5 47.9671 135.041 47.7167 135.554 47.4663C136.067 47.1881 136.466 46.9377 136.779 46.6873C137.093 46.4368 137.292 46.2421 137.378 46.1308C137.919 46.6873 138.347 47.2159 138.746 47.7167C139.116 48.2175 139.316 48.7183 139.316 49.1913C139.316 49.5252 139.116 49.8591 138.717 50.2486C138.318 50.6381 137.777 50.972 137.064 51.3059C136.352 51.6398 135.497 51.918 134.443 52.1128C133.417 52.3354 132.277 52.4467 131.023 52.4467C128.714 52.4467 126.89 52.085 125.522 51.3616C124.154 50.6381 123.185 49.6365 122.615 48.3566C122.302 47.6611 122.131 46.9098 122.045 46.103C121.988 45.2961 121.96 44.4892 121.96 43.6823V18.1406H121.931ZM145.643 25.9033C145.985 25.8755 146.27 25.8476 146.469 25.8476C146.669 25.8476 146.783 25.8476 146.84 25.8476C147.866 25.8476 148.778 26.0702 149.576 26.4876C150.402 26.9049 150.887 27.6005 151.058 28.5743C151.685 27.8231 152.597 27.0997 153.851 26.4319C155.076 25.7642 156.53 25.4303 158.154 25.4303C158.639 25.4303 159.152 25.4581 159.722 25.5416C160.263 25.6251 160.805 25.7364 161.289 25.9033C161.774 26.0702 162.173 26.2928 162.486 26.5989C162.8 26.8771 162.942 27.2666 162.942 27.7396C162.942 28.3239 162.771 28.936 162.401 29.6316C162.059 30.2994 161.688 30.8558 161.346 31.301C160.776 30.8558 160.149 30.5219 159.494 30.2994C158.838 30.0768 157.983 29.9377 156.986 29.9377C156.245 29.9377 155.504 30.049 154.82 30.2437C154.136 30.4385 153.537 30.7167 152.996 31.0506C152.454 31.3845 152.055 31.774 151.742 32.2192C151.428 32.6643 151.286 33.1095 151.286 33.5825V51.6954H145.643V25.9033ZM168.614 25.7364C168.927 25.7085 169.184 25.6807 169.383 25.6807C169.583 25.6807 169.725 25.6807 169.811 25.6807C171.122 25.6807 172.205 25.9589 173.031 26.4876C173.858 27.044 174.257 27.99 174.257 29.3812V46.7151C174.257 47.7724 174.456 48.5236 174.827 48.9409C175.197 49.3861 176.081 49.6087 177.448 49.6087V51.5841C177.049 51.6954 176.508 51.7789 175.824 51.8624C175.14 51.9458 174.456 51.9737 173.801 51.9737C172.518 51.9737 171.549 51.8067 170.865 51.4728C170.181 51.139 169.668 50.7216 169.355 50.1652C169.013 49.6087 168.813 49.0244 168.756 48.3288C168.699 47.6611 168.671 46.9933 168.671 46.3255V25.7364H168.614ZM190.957 38.9246L180.811 26.0981C181.21 26.0146 181.723 25.9311 182.379 25.8198C183.006 25.7085 183.576 25.6529 184.06 25.6529C185.257 25.6529 186.169 25.8476 186.768 26.2093C187.395 26.571 187.965 27.0997 188.478 27.7953L194.377 35.5301L200.334 28.157C200.989 27.3223 201.673 26.6823 202.386 26.265C203.098 25.8476 204.01 25.6251 205.093 25.6251C205.749 25.6251 206.319 25.6807 206.775 25.7642C207.231 25.8476 207.658 25.9868 208 26.1259L197.398 38.8967L207.943 51.5563C207.601 51.6954 207.117 51.8067 206.49 51.8902C205.863 51.9737 205.35 52.0015 204.894 52.0015C204.153 52.0015 203.355 51.8624 202.528 51.612C201.702 51.3616 200.989 50.8607 200.362 50.1373L193.95 42.4025L187.908 49.9704C187.281 50.7773 186.568 51.3059 185.742 51.5841C184.915 51.8624 184.003 52.0015 183.006 52.0015C182.607 52.0015 182.151 51.9737 181.638 51.918C181.125 51.8624 180.697 51.7511 180.355 51.612L190.957 38.9246Z" fill="#173354"></path></svg>